<?xml version="1.0" encoding="UTF-8" ?>
<!DOCTYPE svg PUBLIC "-//W3C//DTD SVG 1.1//EN" "http://www.w3.org/Graphics/SVG/1.1/DTD/svg11.dtd">
<svg width="1510pt" height="301pt" viewBox="0 0 1510 301" version="1.1" xmlns="http://www.w3.org/2000/svg">
<g id="#272f38ff">
</g>
<g id="#b46b44ff">
<path fill="#b46b44" opacity="1.00" d=" M 299.73 43.73 C 300.23 42.44 302.22 41.30 303.18 42.72 C 306.73 48.02 308.56 54.25 311.84 59.70 C 313.29 58.87 314.74 58.03 316.19 57.18 C 319.52 60.23 322.06 64.42 322.29 69.01 C 322.78 76.83 324.88 84.44 327.12 91.90 C 327.73 94.26 331.32 94.46 332.31 92.27 C 334.65 87.91 336.71 83.38 339.01 78.98 C 340.19 76.96 340.90 74.35 342.99 73.06 C 346.28 74.62 347.08 78.92 349.10 81.75 C 350.99 80.34 352.89 78.73 355.29 78.32 C 356.57 78.57 357.18 80.03 358.06 80.90 C 367.83 94.13 377.42 107.50 387.22 120.72 C 398.36 137.43 411.29 152.85 422.55 169.47 C 424.77 172.64 427.51 175.47 429.20 178.99 C 423.82 175.79 419.22 171.49 413.98 168.07 C 401.85 158.39 388.89 149.82 376.53 140.44 C 369.73 135.23 362.65 130.41 355.76 125.33 C 351.12 122.07 346.58 118.51 343.07 114.02 C 339.98 110.12 339.80 104.87 337.27 100.71 C 336.97 100.52 336.35 100.13 336.05 99.94 C 332.64 102.19 330.15 105.51 326.98 108.07 C 322.13 112.32 315.86 114.66 311.39 119.38 C 306.29 124.64 301.93 130.60 296.46 135.51 C 293.37 138.34 289.14 139.24 285.13 139.81 C 272.72 141.48 260.36 144.38 247.77 144.00 C 254.55 136.53 264.39 132.61 271.35 125.30 C 272.06 120.39 271.31 114.89 267.89 111.07 C 265.51 108.11 262.10 105.95 260.47 102.43 C 259.73 99.44 260.99 96.22 259.80 93.30 C 258.76 90.49 257.55 87.74 256.54 84.91 C 252.01 87.19 247.98 90.40 243.17 92.13 C 236.70 94.51 229.94 96.11 223.08 96.85 C 201.20 99.98 179.53 104.41 157.88 108.87 C 150.37 110.31 143.23 113.59 137.06 118.08 C 135.08 119.66 132.43 122.07 133.84 124.86 C 135.59 129.49 140.55 131.35 144.72 133.17 C 160.32 140.18 177.54 141.71 193.95 145.96 C 202.70 148.39 211.59 150.48 219.99 154.02 C 228.89 157.45 238.01 161.27 244.77 168.25 C 249.59 173.31 255.48 178.10 257.22 185.20 C 247.80 185.33 238.36 185.50 228.95 185.08 C 226.65 183.74 226.39 180.33 224.74 178.26 C 218.98 170.08 209.94 165.11 201.12 160.86 C 185.13 153.04 167.23 150.67 150.71 144.27 C 141.56 140.97 131.34 137.93 125.09 129.96 C 122.05 126.50 124.29 121.75 126.69 118.64 C 130.53 114.24 136.22 112.29 141.55 110.37 C 147.75 108.08 154.19 106.43 160.73 105.45 L 160.72 105.19 C 151.34 106.25 142.03 108.23 133.48 112.37 C 127.98 114.55 121.40 118.27 121.30 124.99 C 120.77 130.01 124.76 133.73 128.45 136.42 C 140.40 145.19 155.22 148.02 168.93 152.87 C 181.69 157.95 195.04 161.96 206.82 169.19 C 212.15 173.12 217.69 178.39 218.54 185.28 C 208.63 185.34 198.73 185.16 188.82 185.40 C 187.46 181.91 185.90 178.43 183.37 175.62 C 178.19 169.32 170.52 166.00 163.24 162.81 C 152.53 158.07 141.28 154.59 130.89 149.14 C 123.14 145.51 114.78 140.93 111.56 132.47 C 108.68 126.26 112.47 119.28 117.57 115.57 C 128.06 107.56 141.64 106.29 154.04 103.11 C 167.97 100.83 182.08 99.75 196.06 97.71 C 203.99 97.27 211.69 95.25 219.42 93.58 C 230.87 90.73 241.32 84.03 248.75 74.88 C 251.06 71.99 252.94 68.67 255.95 66.42 C 259.29 67.50 261.35 71.00 263.16 73.87 C 265.59 79.69 265.69 86.38 269.17 91.80 C 271.34 94.66 276.24 93.73 277.72 97.36 C 280.20 103.12 278.96 109.63 279.50 115.72 C 279.73 115.73 280.17 115.76 280.40 115.77 C 284.18 99.41 284.64 82.55 287.48 66.05 C 287.80 62.53 291.15 60.71 292.82 57.92 C 295.38 53.32 297.29 48.39 299.73 43.73 Z" />
<path fill="#b46b44" opacity="1.00" d=" M 556.90 100.73 C 559.14 108.26 560.52 116.00 561.90 123.72 C 565.03 121.25 568.10 118.70 571.20 116.19 C 568.88 119.71 565.96 122.78 562.56 125.28 C 568.68 126.74 574.72 128.62 580.97 129.47 C 580.95 130.49 580.95 131.51 580.94 132.53 C 575.00 133.73 569.16 135.34 563.17 136.29 C 565.98 138.96 568.46 141.98 570.19 145.46 C 567.36 143.51 564.72 141.30 562.13 139.05 C 560.22 146.82 558.33 154.60 557.24 162.53 C 555.93 162.59 554.64 162.53 553.35 162.51 C 554.10 162.39 555.59 162.17 556.33 162.06 C 555.68 154.55 553.69 147.24 552.35 139.84 C 549.04 141.73 546.01 144.04 542.90 146.21 C 544.86 142.99 547.22 140.04 549.51 137.04 C 545.45 135.72 541.30 134.74 537.19 133.60 C 535.69 133.27 534.07 132.60 532.63 133.45 C 532.59 132.95 532.52 131.96 532.48 131.46 C 531.54 131.45 529.66 131.43 528.72 131.41 C 529.77 130.89 530.87 130.46 531.84 129.77 C 532.32 128.60 531.67 127.44 531.60 126.28 C 532.84 124.74 533.53 122.90 533.76 120.94 C 533.40 123.89 532.78 126.87 533.12 129.84 L 533.53 130.46 C 539.05 128.39 544.96 127.88 550.65 126.41 C 548.06 123.20 545.32 120.10 542.98 116.69 C 546.22 119.17 549.27 121.89 552.62 124.23 C 553.44 116.29 554.85 108.44 556.90 100.73 M 557.61 110.84 C 557.04 116.92 556.00 123.22 557.90 129.19 C 560.05 128.38 560.58 125.89 561.59 124.09 C 559.75 119.84 559.28 115.15 557.61 110.84 M 536.38 129.97 L 536.39 131.27 C 543.19 131.46 550.06 132.17 556.83 131.21 C 555.46 129.78 554.17 127.98 552.11 127.56 C 546.88 128.44 541.64 129.29 536.38 129.97 M 557.97 131.79 C 559.73 133.09 561.51 135.07 563.96 134.50 C 568.52 133.94 573.42 133.78 577.50 131.43 C 572.66 131.02 567.79 131.58 562.97 130.97 C 561.23 130.70 559.46 130.77 557.97 131.79 M 553.32 137.01 C 554.50 142.83 555.01 148.76 556.07 154.60 L 556.93 154.96 C 557.84 147.67 556.80 140.28 556.93 132.96 C 555.61 134.19 554.00 135.28 553.32 137.01 Z" />
<path fill="#b46b44" opacity="1.00" d=" M 618.37 223.38 C 624.19 223.31 630.02 223.48 635.85 223.38 C 635.77 223.91 635.62 224.97 635.54 225.50 C 633.20 225.73 630.57 225.21 628.48 226.44 C 626.47 232.36 625.93 238.64 624.45 244.69 C 623.37 244.69 622.30 244.70 621.24 244.71 C 623.02 238.59 624.14 232.31 625.46 226.08 C 623.07 225.90 620.69 225.76 618.31 225.64 C 618.33 225.07 618.36 223.94 618.37 223.38 Z" />
<path fill="#b46b44" opacity="1.00" d=" M 647.54 223.73 C 651.61 222.78 656.74 222.93 659.50 226.58 C 665.01 233.43 658.61 245.08 650.01 244.75 C 646.08 245.23 641.60 244.42 639.59 240.61 C 635.75 234.05 640.90 225.84 647.54 223.73 M 647.20 226.17 C 642.92 228.11 640.61 233.46 641.90 237.93 C 643.18 241.93 648.26 243.37 651.91 241.91 C 656.69 240.23 659.31 234.72 658.39 229.87 C 656.53 225.59 651.23 224.47 647.20 226.17 Z" />
<path fill="#b46b44" opacity="1.00" d=" M 670.69 223.69 C 671.30 223.55 672.52 223.27 673.13 223.12 C 673.37 228.90 670.18 234.58 671.69 240.32 C 674.70 244.24 681.60 242.47 683.12 237.98 C 684.67 233.33 684.37 228.29 685.73 223.57 C 686.77 223.49 687.81 223.41 688.85 223.33 C 687.97 228.47 686.95 233.60 685.47 238.61 C 683.81 243.87 677.43 246.58 672.40 244.53 C 668.88 243.53 667.24 239.38 668.03 236.03 C 668.75 231.88 669.80 227.80 670.69 223.69 Z" />
<path fill="#b46b44" opacity="1.00" d=" M 697.83 223.29 C 702.82 223.82 709.22 221.68 712.95 226.08 C 714.29 228.74 713.98 232.55 711.68 234.63 C 710.40 235.86 708.90 236.80 707.46 237.82 C 708.74 240.05 709.88 242.38 710.88 244.75 C 709.89 244.59 708.91 244.43 707.93 244.26 C 706.96 241.88 705.75 239.61 704.32 237.47 C 702.13 237.56 699.94 237.62 697.76 237.67 C 697.31 239.99 696.84 242.30 696.41 244.62 C 695.84 244.69 694.70 244.81 694.13 244.87 C 695.16 237.64 696.64 230.49 697.83 223.29 M 700.36 226.15 C 699.62 229.27 698.87 232.39 698.15 235.52 C 702.49 237.23 708.68 236.39 710.98 231.89 C 712.09 230.10 710.95 227.81 709.40 226.71 C 706.67 225.03 703.34 225.76 700.36 226.15 Z" />
<path fill="#b46b44" opacity="1.00" d=" M 723.07 225.09 C 727.17 222.32 732.84 223.05 737.06 225.21 C 734.55 227.94 730.98 224.84 727.94 225.61 C 725.38 225.74 721.84 229.23 724.47 231.49 C 727.47 233.38 731.92 232.59 734.11 235.87 C 736.07 239.30 733.16 243.60 729.63 244.45 C 726.00 244.98 722.33 244.58 718.71 244.20 C 718.57 243.21 718.44 242.21 718.31 241.22 C 721.43 242.22 724.71 243.00 728.01 242.48 C 730.33 242.33 732.71 239.95 731.46 237.59 C 728.69 235.05 723.98 235.65 721.60 232.52 C 721.13 230.08 720.51 226.59 723.07 225.09 Z" />
<path fill="#b46b44" opacity="1.00" d=" M 757.58 226.62 C 759.63 222.62 766.97 221.90 768.43 226.80 C 768.68 230.01 765.04 231.60 762.94 233.34 C 764.11 235.04 765.03 237.13 767.00 238.07 C 767.59 236.88 768.09 235.64 768.64 234.42 C 769.11 234.47 770.07 234.56 770.55 234.61 C 771.04 236.62 770.07 238.41 769.38 240.23 C 769.28 241.80 770.41 243.28 769.77 244.86 C 768.48 244.41 767.29 243.74 766.11 243.11 C 762.54 244.65 758.30 246.41 754.57 244.39 C 752.07 243.24 751.93 240.08 752.74 237.81 C 753.88 235.52 756.35 234.41 758.36 233.01 C 757.77 230.95 756.82 228.77 757.58 226.62 M 760.76 226.77 C 759.37 228.19 760.64 230.16 760.76 231.80 C 762.95 231.13 766.29 230.17 765.77 227.19 C 765.45 224.67 761.99 225.30 760.76 226.77 M 755.53 240.38 C 757.46 243.18 762.48 243.25 764.62 240.82 C 764.46 238.02 761.59 236.22 759.97 234.16 C 757.89 235.61 754.63 237.30 755.53 240.38 Z" />
<path fill="#b46b44" opacity="1.00" d=" M 790.33 223.44 C 796.16 223.44 801.99 223.41 807.83 223.29 C 807.79 223.89 807.71 225.09 807.68 225.68 C 805.06 226.16 800.33 224.25 799.72 227.98 C 798.67 233.51 797.28 238.96 796.20 244.48 C 795.22 244.55 794.25 244.62 793.29 244.70 C 794.63 238.46 795.90 232.20 796.97 225.90 C 794.68 225.74 792.40 225.67 790.12 225.68 C 790.17 225.12 790.27 224.00 790.33 223.44 Z" />
<path fill="#b46b44" opacity="1.00" d=" M 814.09 223.40 C 817.65 223.39 821.24 223.18 824.80 223.56 C 828.76 223.95 831.54 228.52 830.12 232.24 C 828.94 234.85 826.50 236.52 824.16 238.01 C 825.12 240.32 826.27 242.55 827.63 244.67 C 826.59 244.62 825.55 244.57 824.54 244.52 C 823.41 242.22 822.27 239.92 821.15 237.62 C 819.12 237.63 817.09 237.54 815.09 237.82 C 813.20 239.46 813.64 242.19 813.28 244.42 C 812.26 244.48 811.24 244.55 810.23 244.63 C 811.96 237.64 813.09 230.53 814.09 223.40 M 817.22 226.32 C 815.95 229.14 815.45 232.23 814.79 235.23 C 819.33 238.55 828.32 235.49 827.46 228.93 C 825.90 224.98 820.51 224.92 817.22 226.32 Z" />
<path fill="#b46b44" opacity="1.00" d=" M 846.64 223.60 C 847.58 223.53 848.54 223.46 849.51 223.40 C 851.33 230.55 853.67 237.58 854.99 244.85 C 854.30 244.81 852.92 244.73 852.23 244.69 C 851.62 242.98 851.00 241.28 850.36 239.60 C 846.74 239.57 843.14 239.43 839.53 239.37 C 838.34 241.20 837.09 243.00 835.80 244.75 C 835.11 244.69 833.74 244.56 833.05 244.50 C 837.82 237.68 841.68 230.29 846.64 223.60 M 840.84 237.15 C 844.02 237.45 847.23 237.47 850.43 237.27 C 849.49 233.87 848.80 230.41 847.85 227.02 C 844.65 229.61 843.19 233.82 840.84 237.15 Z" />
<path fill="#b46b44" opacity="1.00" d=" M 861.26 223.32 C 862.24 223.43 863.23 223.55 864.24 223.67 C 865.11 229.54 867.14 235.14 868.84 240.81 C 872.70 235.00 876.42 229.09 880.26 223.27 C 880.97 223.26 882.40 223.23 883.11 223.21 C 879.55 229.24 875.45 234.95 872.09 241.10 C 870.91 242.90 869.12 246.82 866.53 244.69 C 863.96 237.79 863.08 230.42 861.26 223.32 Z" />
<path fill="#b46b44" opacity="1.00" d=" M 889.29 223.35 C 894.43 223.38 899.57 223.36 904.71 223.41 C 904.61 223.92 904.40 224.95 904.30 225.46 C 900.15 225.78 895.98 225.65 891.83 225.78 C 891.30 228.28 890.84 230.79 890.49 233.32 C 893.93 233.35 897.39 233.34 900.84 233.33 C 900.81 233.68 900.76 234.37 900.73 234.72 C 897.07 234.69 893.42 234.67 889.77 234.66 C 889.38 237.31 888.89 239.94 888.33 242.56 C 892.41 242.66 896.49 242.65 900.58 242.52 C 900.60 243.05 900.65 244.11 900.68 244.63 C 895.50 244.60 890.33 244.57 885.16 244.63 C 887.14 237.65 887.34 230.33 889.29 223.35 Z" />
<path fill="#b46b44" opacity="1.00" d=" M 912.65 223.41 C 913.17 223.37 914.22 223.31 914.74 223.28 C 914.85 229.79 912.32 235.93 912.04 242.40 C 915.91 242.54 919.80 242.49 923.69 242.42 C 923.65 242.95 923.57 244.01 923.53 244.53 C 918.43 244.70 913.34 244.52 908.25 244.63 C 909.85 237.59 910.83 230.41 912.65 223.41 Z" />
<path fill="#b46b44" opacity="1.00" d=" M 934.02 225.00 C 937.79 222.52 942.63 223.14 946.80 224.12 C 946.79 224.81 946.77 226.18 946.76 226.87 C 942.73 226.17 937.88 224.21 934.47 227.54 C 934.23 228.66 933.93 230.10 934.87 231.02 C 937.78 233.89 943.30 232.52 945.31 236.58 C 945.64 238.44 945.72 240.73 944.12 242.06 C 940.47 245.73 934.40 245.68 929.81 244.10 C 927.73 243.56 928.58 241.49 929.40 240.26 C 932.71 242.35 937.03 243.38 940.71 241.65 C 942.69 240.85 943.27 237.83 941.31 236.68 C 938.62 235.20 935.09 235.45 932.84 233.19 C 930.21 231.02 931.35 226.65 934.02 225.00 Z" />
<path fill="#b46b44" opacity="1.00" d=" M 110.36 233.31 C 260.90 233.25 411.45 233.29 561.99 233.33 C 572.28 233.32 582.56 233.33 592.85 233.20 C 592.78 234.31 592.71 235.41 592.66 236.52 C 431.93 236.41 271.19 236.47 110.46 236.51 C 110.43 235.44 110.39 234.37 110.36 233.31 Z" />
<path fill="#b46b44" opacity="1.00" d=" M 970.23 233.32 C 1131.25 233.20 1292.28 233.45 1453.30 233.21 C 1453.28 233.91 1453.24 235.31 1453.23 236.01 C 1451.66 236.90 1449.69 236.30 1448.00 236.47 C 1288.73 236.45 1129.47 236.43 970.20 236.48 C 970.20 235.43 970.21 234.37 970.23 233.32 Z" />
</g>
<g id="#fdfdfdff">
<path fill="#fdfdfd" opacity="1.00" d=" M 741.84 95.85 C 745.83 93.26 751.38 95.85 752.90 100.12 C 755.24 107.09 752.93 114.85 748.78 120.66 C 747.41 122.75 745.32 124.16 743.11 125.22 C 745.66 120.33 748.51 114.73 746.84 109.10 C 745.82 105.93 741.53 108.46 739.88 105.97 C 736.95 102.95 738.20 97.68 741.84 95.85 Z" />
<path fill="#fdfdfd" opacity="1.00" d=" M 549.58 95.79 C 558.45 93.74 567.99 94.76 576.14 98.86 C 586.62 103.49 593.90 113.93 595.69 125.12 C 597.18 133.37 595.38 142.03 591.42 149.34 C 585.99 159.98 574.67 166.71 563.12 168.56 C 555.76 169.23 547.90 169.24 541.16 165.82 C 535.40 162.96 530.14 158.97 526.09 153.96 C 519.97 145.79 518.15 135.03 519.66 125.07 C 521.90 110.19 535.14 98.55 549.58 95.79 M 544.78 101.73 C 538.39 105.99 534.84 113.52 533.76 120.94 C 533.53 122.90 532.84 124.74 531.60 126.28 C 531.67 127.44 532.32 128.60 531.84 129.77 C 530.87 130.46 529.77 130.89 528.72 131.41 C 529.66 131.43 531.54 131.45 532.48 131.46 C 532.52 131.96 532.59 132.95 532.63 133.45 C 534.08 144.28 537.48 156.60 547.61 162.43 C 556.22 167.52 568.49 165.69 574.75 157.72 C 579.98 150.82 582.01 142.01 581.89 133.46 C 581.96 131.36 584.42 131.44 585.95 130.92 C 584.46 130.78 582.38 130.99 581.98 129.13 C 581.03 122.47 579.89 115.54 576.32 109.70 C 573.49 105.65 569.94 101.81 565.22 100.01 C 558.67 97.16 550.86 98.19 544.78 101.73 Z" />
<path fill="#fdfdfd" opacity="1.00" d=" M 762.70 104.60 C 766.99 97.43 775.91 94.22 783.97 94.76 C 788.96 95.18 794.34 95.40 798.63 98.31 C 799.97 99.01 800.18 100.60 800.02 101.97 C 799.61 107.02 799.98 112.09 799.66 117.14 C 799.35 116.98 798.73 116.67 798.42 116.51 C 795.93 111.25 793.88 105.55 789.76 101.28 C 786.12 97.65 779.97 97.28 775.63 99.81 C 770.44 103.11 769.93 110.88 773.42 115.61 C 780.27 125.05 793.21 127.54 799.99 137.09 C 803.77 143.01 804.19 150.72 801.44 157.14 C 797.73 163.76 790.69 168.59 783.00 168.82 C 775.05 169.24 765.94 168.18 760.16 162.15 C 760.29 155.70 759.53 149.26 759.84 142.80 C 762.46 143.98 762.62 147.06 763.81 149.34 C 766.71 155.27 770.78 161.25 777.10 163.89 C 781.64 165.60 787.84 164.90 790.47 160.35 C 792.97 155.78 791.99 149.92 789.27 145.66 C 786.76 141.53 782.44 139.11 778.68 136.29 C 773.15 132.24 766.49 129.29 762.58 123.42 C 759.30 117.70 759.84 110.37 762.70 104.60 Z" />
<path fill="#fdfdfd" opacity="1.00" d=" M 452.58 97.07 C 453.92 95.31 456.14 95.89 458.04 95.94 C 467.00 96.62 475.98 95.64 484.95 95.75 C 491.21 95.95 498.33 97.43 502.18 102.87 C 505.04 107.34 505.27 113.21 503.39 118.10 C 501.31 122.83 497.65 126.64 493.66 129.82 C 497.34 137.36 502.41 144.05 507.21 150.89 C 510.39 155.33 513.98 159.59 518.55 162.65 C 521.07 164.38 524.10 165.04 526.84 166.35 C 526.64 166.56 526.25 166.99 526.05 167.20 C 519.66 167.55 513.24 167.11 506.84 167.51 C 497.79 160.83 492.17 150.74 486.93 141.03 C 485.46 138.53 484.44 135.62 482.26 133.64 C 479.61 133.17 476.90 133.44 474.22 133.44 C 473.44 142.62 473.75 151.87 473.92 161.06 C 474.37 164.83 478.77 165.21 481.73 165.75 L 482.26 167.38 C 472.41 167.43 462.56 167.52 452.71 167.24 C 453.10 164.16 456.79 166.26 458.36 164.38 C 460.66 162.67 460.81 159.61 460.77 156.99 C 460.72 140.31 460.85 123.63 460.82 106.95 C 460.75 104.65 460.94 102.24 459.97 100.09 C 458.27 97.75 455.07 97.95 452.58 97.07 M 477.17 99.10 C 474.11 99.80 473.97 103.54 473.85 106.06 C 473.82 113.03 473.71 120.00 473.84 126.96 C 473.73 129.65 477.11 129.84 479.05 129.83 C 483.65 130.14 488.96 128.11 490.29 123.26 C 492.40 116.51 492.39 108.55 488.44 102.46 C 486.12 98.72 481.08 98.35 477.17 99.10 Z" />
<path fill="#fdfdfd" opacity="1.00" d=" M 625.06 99.93 C 625.93 98.15 626.62 95.28 629.16 95.47 C 631.02 96.40 631.37 98.88 632.39 100.56 C 638.17 114.24 645.08 127.40 651.10 140.97 C 653.94 146.53 656.02 152.45 659.14 157.87 C 661.04 160.84 663.35 164.10 666.98 165.01 C 669.39 165.65 672.45 165.21 673.85 162.91 C 675.60 160.28 675.17 156.97 675.29 153.98 C 675.29 137.65 675.46 121.32 675.39 104.99 C 675.31 103.43 675.44 101.70 674.36 100.43 C 672.86 97.68 669.24 98.50 666.87 97.06 C 668.17 96.36 669.55 96.05 671.03 96.13 C 679.01 96.15 687.00 96.29 694.99 96.09 C 700.64 96.08 706.48 95.83 711.88 97.83 C 720.83 100.85 729.32 106.88 733.16 115.77 C 740.46 131.49 735.01 152.57 720.00 161.74 C 713.00 166.45 704.30 168.02 695.99 167.59 C 677.40 166.98 658.78 167.68 640.20 166.98 C 642.19 164.74 647.79 164.90 646.18 160.74 C 643.05 153.29 639.72 145.88 636.28 138.56 C 628.47 138.33 620.65 138.54 612.83 138.45 C 610.30 145.17 606.28 151.69 606.12 159.04 C 606.56 163.76 612.11 164.63 615.80 165.56 C 615.66 166.02 615.37 166.92 615.23 167.37 C 607.04 167.15 598.84 167.60 590.66 167.21 C 591.86 164.43 595.63 164.62 597.35 162.27 C 599.80 159.15 601.23 155.40 602.90 151.83 C 610.10 134.45 617.72 117.26 625.06 99.93 M 690.51 100.72 C 688.16 101.90 688.15 104.74 688.12 107.00 C 687.62 121.98 688.07 136.97 687.85 151.96 C 687.86 155.91 687.59 161.41 692.14 163.05 C 701.60 166.64 713.17 161.59 717.75 152.72 C 723.43 143.06 723.31 131.19 721.20 120.51 C 718.80 111.80 713.40 102.45 704.08 100.01 C 699.66 99.11 694.66 98.60 690.51 100.72 M 619.85 121.87 C 618.10 126.08 616.10 130.21 614.84 134.60 C 621.50 134.68 628.16 134.64 634.82 134.68 C 631.36 127.21 627.91 119.73 624.54 112.22 C 622.39 115.13 621.38 118.64 619.85 121.87 Z" />
<path fill="#fdfdfd" opacity="1.00" d=" M 822.92 97.19 C 823.87 96.70 824.66 95.64 825.89 95.94 C 840.24 96.52 854.62 96.00 868.98 96.26 C 869.17 96.45 869.56 96.82 869.75 97.01 C 869.93 102.44 869.86 107.89 869.69 113.32 C 867.35 111.72 867.28 108.54 865.66 106.38 C 862.93 101.67 857.35 99.52 852.10 99.68 C 849.03 99.53 844.51 99.80 843.80 103.55 C 843.11 110.36 843.66 117.23 843.42 124.06 C 843.59 125.32 842.83 128.10 845.02 127.81 C 850.03 127.49 855.63 128.94 860.16 126.23 C 862.79 124.88 862.97 121.39 865.47 119.94 C 865.29 127.33 866.31 134.86 865.11 142.15 C 863.37 138.68 862.12 134.29 857.98 132.93 C 853.29 131.95 848.44 132.59 843.69 132.18 C 843.32 140.42 843.65 148.67 843.52 156.91 C 843.49 159.09 843.49 162.14 846.03 162.96 C 852.01 164.11 858.83 163.87 863.77 159.86 C 867.45 157.20 869.61 153.14 871.50 149.13 L 872.26 148.87 C 872.00 154.95 871.79 161.21 871.10 167.33 C 855.26 167.03 839.39 167.82 823.59 167.11 C 822.98 165.04 825.81 165.83 826.87 165.18 C 829.75 164.74 830.71 161.55 830.62 159.02 C 830.71 141.01 830.68 123.00 830.70 104.99 C 830.53 103.20 830.89 101.01 829.46 99.64 C 827.80 97.79 825.16 97.74 822.92 97.19 Z" />
<path fill="#fdfdfd" opacity="1.00" d=" M 875.86 96.69 C 879.82 95.61 883.97 96.33 888.03 96.22 C 890.77 96.38 893.63 95.96 896.32 96.58 C 904.47 108.14 912.52 119.81 921.13 131.04 C 924.99 136.03 928.20 141.57 932.61 146.11 C 932.67 133.76 932.47 121.40 932.50 109.05 C 932.47 106.35 932.60 103.39 930.81 101.16 C 929.30 98.58 926.07 98.24 923.67 96.92 C 930.34 94.99 937.54 96.73 944.43 96.02 C 944.63 96.23 945.02 96.65 945.22 96.86 C 944.54 98.67 941.24 98.23 939.94 99.90 C 935.82 104.19 936.51 110.56 936.42 116.02 C 936.14 133.98 936.62 151.94 936.39 169.90 C 935.03 169.63 933.92 168.98 933.05 167.97 C 923.08 154.56 913.05 141.19 903.15 127.72 C 898.98 121.99 895.18 115.92 890.10 110.92 C 890.31 119.94 889.55 128.96 890.09 137.97 C 890.44 145.57 888.84 153.42 891.16 160.83 C 892.22 164.03 895.76 164.78 898.50 165.93 L 898.26 167.17 C 891.04 167.59 883.79 167.42 876.57 167.28 C 878.00 164.96 881.34 165.83 882.84 163.57 C 885.94 160.20 885.68 155.32 885.79 151.06 C 885.71 140.03 886.45 129.00 885.90 117.97 C 885.74 113.70 886.26 109.39 885.64 105.14 C 884.71 101.51 881.31 98.90 877.70 98.25 C 877.24 97.86 876.32 97.08 875.86 96.69 Z" />
<path fill="#fdfdfd" opacity="1.00" d=" M 946.83 97.02 C 947.02 96.76 947.38 96.25 947.57 95.99 C 957.37 96.36 967.19 96.12 977.00 96.07 C 988.14 95.84 999.70 100.32 1006.87 109.02 C 1012.97 116.46 1014.62 126.54 1013.60 135.89 C 1012.26 145.27 1007.98 154.73 1000.03 160.29 C 993.01 165.92 983.76 167.88 974.93 167.57 C 965.50 167.24 956.06 167.44 946.64 167.31 C 947.39 164.25 952.19 166.09 953.14 162.87 C 955.23 154.43 953.62 145.58 953.87 136.97 C 954.33 128.67 954.24 120.34 953.83 112.04 C 953.60 108.06 954.34 103.83 952.72 100.07 C 951.84 97.41 947.75 99.46 946.83 97.02 M 970.53 99.77 C 968.43 100.62 966.57 102.61 966.72 105.00 C 966.54 122.66 966.75 140.32 966.58 157.98 C 966.50 161.36 969.81 163.65 972.89 163.96 C 982.47 165.06 992.82 159.73 996.50 150.61 C 1000.38 141.72 1001.10 131.56 999.17 122.10 C 997.83 115.22 995.19 108.05 989.43 103.67 C 984.33 99.19 976.94 98.37 970.53 99.77 Z" />
<path fill="#fdfdfd" opacity="1.00" d=" M 1036.61 96.30 C 1043.08 95.99 1049.59 96.72 1056.05 95.98 C 1061.05 95.42 1066.24 95.48 1071.07 97.07 C 1077.28 99.26 1081.41 105.56 1081.96 112.00 C 1082.93 120.00 1080.96 129.02 1074.56 134.40 C 1070.46 138.15 1064.49 139.42 1059.12 138.36 C 1057.81 138.12 1056.92 137.05 1055.94 136.28 C 1059.07 136.12 1062.67 136.53 1065.07 134.05 C 1070.96 128.83 1071.24 120.17 1070.65 112.89 C 1070.08 107.80 1068.15 102.08 1063.39 99.48 C 1060.73 98.22 1056.31 97.82 1054.96 101.09 C 1053.94 105.34 1054.40 109.75 1054.27 114.07 C 1054.41 129.67 1054.04 145.28 1054.38 160.88 C 1054.28 165.00 1058.87 165.99 1062.11 165.94 C 1062.04 166.36 1061.90 167.19 1061.83 167.60 C 1054.20 167.37 1046.56 167.51 1038.93 167.46 C 1037.77 167.65 1037.02 167.18 1036.69 166.04 C 1040.00 166.33 1043.65 164.35 1043.41 160.61 C 1043.83 142.42 1043.52 124.21 1043.56 106.01 C 1043.43 103.86 1043.89 101.33 1042.39 99.55 C 1041.00 97.54 1037.78 98.47 1036.61 96.30 Z" />
<path fill="#fdfdfd" opacity="1.00" d=" M 1125.94 113.43 C 1127.44 114.54 1129.06 115.70 1131.04 115.69 C 1138.36 115.96 1145.70 115.69 1153.03 115.82 C 1157.87 115.68 1163.38 116.68 1167.32 113.10 C 1167.14 118.85 1166.91 124.60 1166.53 130.35 C 1163.93 126.51 1163.55 120.25 1158.25 118.86 C 1155.91 118.44 1151.48 117.44 1151.15 120.87 C 1150.74 134.90 1151.04 148.95 1151.04 162.98 C 1151.49 166.33 1156.17 165.01 1157.49 167.58 C 1152.31 167.63 1147.14 167.44 1141.97 167.62 C 1139.71 167.55 1137.26 167.95 1135.26 166.68 C 1137.42 165.97 1141.36 165.97 1141.53 162.89 C 1141.92 149.60 1141.66 136.29 1141.65 122.99 C 1141.53 121.61 1141.77 120.06 1140.92 118.87 C 1136.67 117.14 1131.51 119.49 1129.34 123.39 C 1127.75 125.65 1127.41 128.71 1125.26 130.54 C 1125.44 124.84 1125.99 119.15 1125.94 113.43 Z" />
<path fill="#fdfdfd" opacity="1.00" d=" M 1101.40 115.30 C 1101.98 113.23 1104.05 115.65 1104.21 116.74 C 1108.91 127.91 1114.08 138.88 1119.07 149.92 C 1121.19 154.40 1122.78 159.19 1125.71 163.24 C 1127.02 165.12 1129.20 166.10 1130.82 167.70 C 1123.82 167.30 1116.68 168.30 1109.78 167.11 C 1111.48 166.10 1115.04 165.89 1114.57 163.18 C 1112.67 157.50 1109.98 152.09 1107.51 146.65 C 1102.31 146.79 1097.12 146.76 1091.93 146.87 C 1090.08 151.44 1087.76 156.06 1087.47 161.04 C 1087.47 164.56 1090.96 166.24 1094.01 166.51 C 1093.99 166.80 1093.95 167.37 1093.92 167.65 C 1087.79 167.46 1081.66 167.65 1075.54 167.60 C 1076.92 165.84 1079.47 165.61 1080.84 163.82 C 1082.14 162.09 1083.03 160.09 1083.94 158.14 C 1090.06 143.99 1095.47 129.53 1101.40 115.30 M 1093.05 144.03 C 1097.53 144.12 1102.03 144.11 1106.53 144.12 C 1104.30 138.57 1101.74 133.15 1099.57 127.58 C 1096.58 132.68 1095.11 138.52 1093.05 144.03 Z" />
<path fill="#fdfdfd" opacity="1.00" d=" M 1186.85 117.74 C 1187.36 116.56 1187.72 115.12 1189.00 114.49 C 1191.00 116.36 1191.49 119.22 1192.66 121.60 C 1196.58 130.60 1200.82 139.46 1204.56 148.55 C 1207.75 155.49 1209.80 163.88 1217.13 167.68 C 1211.73 167.73 1206.34 167.50 1200.94 167.61 C 1199.40 167.51 1197.61 167.92 1196.46 166.66 C 1198.47 166.55 1201.69 165.66 1200.81 162.95 C 1198.95 157.40 1196.14 152.21 1193.98 146.78 C 1188.73 146.76 1183.48 146.59 1178.24 146.85 C 1176.73 151.59 1174.44 156.11 1173.63 161.03 C 1173.50 164.97 1177.82 166.31 1180.97 166.81 C 1179.61 168.06 1177.68 167.55 1176.04 167.59 C 1171.34 167.30 1166.62 167.84 1161.95 167.24 C 1164.31 165.94 1167.13 164.98 1168.49 162.45 C 1171.28 157.59 1172.90 152.18 1175.07 147.03 C 1178.85 137.21 1183.10 127.58 1186.85 117.74 M 1179.46 143.95 C 1183.91 143.97 1188.37 144.15 1192.83 144.07 C 1190.33 138.65 1188.14 133.09 1185.86 127.57 C 1183.51 132.95 1181.38 138.41 1179.46 143.95 Z" />
<path fill="#fdfdfd" opacity="1.00" d=" M 1223.94 121.90 C 1233.22 113.74 1247.55 112.61 1258.57 117.71 C 1258.64 122.44 1259.25 127.15 1259.12 131.89 C 1256.72 129.11 1255.79 125.39 1253.33 122.66 C 1249.10 116.85 1240.28 115.49 1234.27 119.23 C 1229.00 122.20 1226.42 128.25 1225.57 133.99 C 1224.25 143.07 1225.60 153.13 1231.56 160.41 C 1235.34 165.19 1242.06 167.87 1248.01 166.03 C 1250.71 165.29 1251.87 162.38 1251.86 159.81 C 1251.84 156.38 1252.81 152.67 1251.30 149.44 C 1249.99 147.08 1247.00 147.72 1244.79 147.57 L 1244.76 146.08 C 1251.55 146.29 1258.36 146.05 1265.16 146.37 C 1263.77 147.28 1262.18 147.95 1261.02 149.14 C 1259.87 154.63 1260.70 160.30 1260.63 165.87 C 1253.07 168.57 1244.85 169.47 1236.90 168.45 C 1227.86 167.22 1219.68 160.58 1216.97 151.83 C 1213.78 141.59 1215.78 129.32 1223.94 121.90 Z" />
<path fill="#fdfdfd" opacity="1.00" d=" M 1287.38 115.58 C 1295.48 113.22 1304.86 115.24 1310.96 121.19 C 1321.84 131.69 1321.11 151.08 1310.62 161.60 C 1301.92 170.78 1285.52 171.48 1276.45 162.47 C 1266.28 152.53 1265.30 134.48 1274.59 123.66 C 1277.97 119.83 1282.48 117.04 1287.38 115.58 M 1287.33 118.42 C 1282.78 120.12 1280.64 124.96 1279.28 129.26 C 1277.27 137.91 1278.07 147.18 1281.30 155.44 C 1283.00 159.70 1285.96 163.80 1290.40 165.46 C 1295.49 167.53 1301.65 165.17 1304.53 160.60 C 1308.53 154.54 1308.96 146.92 1308.52 139.88 C 1307.91 133.12 1306.14 125.94 1301.06 121.11 C 1297.55 117.58 1291.89 116.71 1287.33 118.42 Z" />
<path fill="#fdfdfd" opacity="1.00" d=" M 1407.56 150.64 C 1412.88 138.58 1416.77 125.86 1422.75 114.12 C 1423.90 115.41 1424.82 116.92 1425.49 118.54 C 1430.44 129.84 1435.43 141.11 1440.66 152.29 C 1443.35 157.90 1445.34 164.57 1451.34 167.56 C 1444.58 167.62 1437.83 167.40 1431.08 167.72 C 1431.07 167.42 1431.03 166.82 1431.01 166.52 C 1432.63 166.05 1435.78 165.34 1434.96 162.97 C 1433.13 157.34 1430.45 152.03 1428.12 146.61 C 1422.79 146.69 1417.46 146.53 1412.14 146.85 C 1410.43 151.47 1408.35 156.04 1407.73 160.97 C 1407.80 164.31 1411.16 166.28 1414.23 166.29 L 1414.21 167.63 C 1408.48 167.48 1402.75 167.71 1397.04 167.47 L 1396.85 166.96 C 1397.77 165.48 1399.94 165.44 1400.98 163.99 C 1404.07 160.05 1405.55 155.17 1407.56 150.64 M 1419.65 127.61 C 1417.61 133.10 1415.16 138.44 1413.47 144.07 C 1417.98 144.09 1422.50 144.09 1427.02 144.13 C 1424.74 138.55 1422.53 132.90 1419.65 127.61 Z" />
<path fill="#fdfdfd" opacity="1.00" d=" M 1321.40 115.74 C 1326.35 115.67 1331.30 115.88 1336.26 115.70 C 1345.80 127.87 1354.64 140.59 1364.32 152.67 C 1364.13 142.77 1364.69 132.84 1364.02 122.96 C 1363.91 119.39 1360.72 117.41 1357.92 115.94 C 1363.03 115.81 1368.19 115.52 1373.28 115.93 L 1374.11 116.63 C 1370.78 116.97 1367.72 119.32 1367.51 122.82 C 1366.00 135.50 1367.67 148.29 1367.03 161.02 C 1366.83 163.99 1366.86 166.97 1366.83 169.95 C 1361.92 165.19 1357.95 159.57 1353.77 154.18 C 1346.62 144.52 1339.26 135.02 1331.73 125.65 C 1332.11 137.12 1331.41 148.61 1332.08 160.06 C 1332.30 163.86 1336.01 165.39 1338.40 167.63 C 1333.05 167.53 1327.71 167.53 1322.38 167.51 C 1324.22 165.13 1328.26 164.52 1328.52 160.86 C 1329.81 148.61 1328.93 136.21 1328.98 123.90 C 1329.20 119.32 1323.84 118.44 1321.40 115.74 Z" />
<path fill="#fdfdfd" opacity="1.00" d=" M 1375.39 115.85 C 1382.33 115.67 1389.28 115.82 1396.23 115.80 C 1394.80 117.41 1392.11 117.06 1390.97 118.98 C 1389.43 121.72 1389.94 125.03 1389.91 128.04 C 1390.66 139.94 1389.27 151.87 1390.39 163.75 C 1390.81 165.97 1393.86 165.33 1394.89 166.88 C 1388.63 168.33 1381.92 167.08 1375.49 167.57 L 1375.46 166.54 C 1377.83 166.10 1381.28 165.18 1380.83 162.03 C 1380.90 148.35 1381.00 134.66 1380.76 120.99 C 1380.88 117.81 1377.18 117.56 1375.39 115.85 Z" />
</g>
</svg>
