<?xml version="1.0" encoding="UTF-8" ?>
<!DOCTYPE svg PUBLIC "-//W3C//DTD SVG 1.1//EN" "http://www.w3.org/Graphics/SVG/1.1/DTD/svg11.dtd">
<svg width="1510pt" height="688pt" viewBox="0 0 1510 688" version="1.1" xmlns="http://www.w3.org/2000/svg">
<g id="#273039ff">
</g>
<g id="#3b2923ff">
<path fill="#3b2923" opacity="1.00" d=" M 298.28 255.24 C 299.51 253.61 301.89 253.88 303.63 254.36 C 308.17 257.51 309.16 263.42 312.58 267.49 C 315.11 269.36 318.86 269.46 320.66 272.34 C 325.74 278.50 324.58 286.95 326.74 294.18 C 327.52 296.42 327.79 300.16 330.91 300.17 C 334.87 296.12 336.16 290.24 339.94 286.06 C 341.44 284.88 343.67 284.80 345.37 285.59 C 346.83 286.79 347.93 288.36 349.34 289.62 C 352.34 290.52 355.79 289.84 358.55 291.49 C 365.56 298.34 369.92 307.29 376.35 314.61 C 379.57 318.50 381.70 323.15 384.98 327.00 C 390.56 333.85 394.98 341.55 400.66 348.32 C 404.81 354.67 409.72 360.47 414.36 366.45 C 417.19 372.19 422.45 376.17 425.20 381.96 C 426.74 385.09 430.84 388.04 429.10 391.89 C 426.90 388.92 424.49 386.11 422.35 383.10 C 411.06 366.71 398.38 351.33 387.27 334.80 C 380.13 325.29 373.31 315.54 366.18 306.01 C 362.63 301.52 359.84 296.38 355.72 292.38 C 353.54 292.35 351.91 294.17 350.05 295.04 C 349.52 295.19 348.98 295.27 348.45 295.34 C 346.98 292.31 345.92 288.77 343.02 286.77 C 338.15 292.98 335.57 300.66 331.82 307.57 C 330.24 307.54 328.68 307.49 327.12 307.34 C 325.96 301.20 323.77 295.30 322.92 289.11 C 322.42 285.85 322.32 282.54 321.51 279.34 C 320.66 276.19 318.43 273.70 316.44 271.22 C 315.73 271.62 314.32 272.43 313.61 272.84 C 313.00 273.03 311.78 273.41 311.18 273.60 C 308.85 267.87 306.62 261.95 303.15 256.81 C 302.22 254.72 300.54 256.58 299.78 257.76 C 296.68 263.08 295.16 269.32 291.09 274.07 C 289.38 276.06 287.59 278.19 287.30 280.91 C 285.30 293.40 284.52 306.06 282.55 318.56 C 281.36 317.71 280.18 316.88 278.99 316.05 C 278.59 313.76 278.20 311.18 276.37 309.56 C 274.40 308.22 271.97 307.86 269.76 307.07 C 266.91 302.26 265.51 296.83 264.35 291.41 C 263.31 286.59 259.77 282.95 256.06 279.96 C 254.13 282.17 252.25 284.41 250.46 286.72 C 247.64 290.59 244.03 293.74 240.82 297.25 C 233.91 302.03 226.48 306.21 218.17 307.95 C 211.75 309.01 205.42 310.65 198.93 311.34 C 183.11 313.65 167.13 314.86 151.37 317.55 C 150.96 317.22 150.16 316.56 149.76 316.23 C 159.03 314.00 168.55 313.13 177.99 311.96 C 188.67 308.77 200.18 310.55 210.73 306.67 C 220.24 304.72 229.96 301.95 237.67 295.76 C 242.23 291.61 246.60 287.18 249.96 281.99 C 251.45 279.37 254.63 277.87 257.58 278.37 C 260.47 279.52 262.69 281.90 264.49 284.36 C 268.02 289.45 267.37 296.01 269.59 301.58 C 271.17 304.60 274.46 306.20 277.46 307.49 C 279.28 308.54 281.58 306.83 281.68 304.88 C 282.97 296.59 283.11 288.15 284.70 279.90 C 285.23 276.03 288.26 273.32 290.13 270.08 C 293.17 265.31 294.50 259.54 298.28 255.24 Z" />
</g>
<g id="#a57158ff">
<path fill="#a57158" opacity="1.00" d=" M 299.78 257.76 C 300.54 256.58 302.22 254.72 303.15 256.81 C 306.62 261.95 308.85 267.87 311.18 273.60 C 306.37 270.98 306.27 264.73 303.20 260.69 C 302.40 260.50 301.61 260.47 300.81 260.59 C 297.52 264.93 296.25 270.46 292.79 274.71 C 289.93 278.16 288.33 282.50 288.21 286.99 C 287.79 296.57 287.73 306.27 285.69 315.69 C 284.22 320.60 284.06 326.13 280.65 330.24 C 281.38 326.36 281.93 322.46 282.55 318.56 C 284.52 306.06 285.30 293.40 287.30 280.91 C 287.59 278.19 289.38 276.06 291.09 274.07 C 295.16 269.32 296.68 263.08 299.78 257.76 Z" />
</g>
<g id="#b56b42ff">
<path fill="#b56b42" opacity="1.00" d=" M 300.81 260.59 C 301.61 260.47 302.40 260.50 303.20 260.69 C 306.27 264.73 306.37 270.98 311.18 273.60 C 311.78 273.41 313.00 273.03 313.61 272.84 C 316.09 274.84 319.17 276.77 319.81 280.16 C 321.59 287.86 322.27 295.82 324.56 303.42 C 324.98 304.96 326.01 306.22 327.12 307.34 C 328.68 307.49 330.24 307.54 331.82 307.57 C 332.22 307.57 333.02 307.57 333.42 307.57 C 337.27 302.38 338.17 295.42 342.99 290.93 C 344.76 292.45 346.54 293.98 348.45 295.34 C 348.98 295.27 349.52 295.19 350.05 295.04 C 353.39 295.99 357.31 296.50 359.33 299.72 C 375.13 321.27 391.20 342.63 406.17 364.78 C 407.98 367.34 409.25 370.24 410.27 373.20 C 402.65 371.80 397.04 366.16 390.71 362.19 C 381.00 355.32 371.17 348.60 361.83 341.24 C 355.45 336.45 348.23 332.11 344.17 325.00 C 342.04 321.46 341.70 317.08 339.23 313.74 C 336.33 311.78 333.07 313.87 330.87 315.86 C 326.58 319.66 322.08 323.28 316.97 325.92 C 311.11 328.88 308.10 335.05 303.19 339.15 C 299.05 342.65 296.45 348.19 290.98 349.91 C 285.03 351.75 278.79 352.63 272.59 353.05 C 269.53 352.65 266.44 352.53 263.36 352.66 C 263.10 351.88 262.60 350.32 262.34 349.54 C 268.07 346.10 274.96 340.39 273.19 332.87 C 272.22 325.59 266.26 320.84 262.42 315.07 C 263.13 312.86 263.90 310.66 264.74 308.50 C 268.27 310.12 272.35 311.59 274.25 315.28 C 277.18 319.59 276.32 325.26 279.18 329.59 C 279.40 329.98 279.83 330.77 280.05 331.17 C 280.20 330.94 280.50 330.47 280.65 330.24 C 284.06 326.13 284.22 320.60 285.69 315.69 C 287.73 306.27 287.79 296.57 288.21 286.99 C 288.33 282.50 289.93 278.16 292.79 274.71 C 296.25 270.46 297.52 264.93 300.81 260.59 Z" />
</g>
<g id="#a57c6eff">
<path fill="#a57c6e" opacity="1.00" d=" M 313.61 272.84 C 314.32 272.43 315.73 271.62 316.44 271.22 C 318.43 273.70 320.66 276.19 321.51 279.34 C 322.32 282.54 322.42 285.85 322.92 289.11 C 323.77 295.30 325.96 301.20 327.12 307.34 C 326.01 306.22 324.98 304.96 324.56 303.42 C 322.27 295.82 321.59 287.86 319.81 280.16 C 319.17 276.77 316.09 274.84 313.61 272.84 Z" />
<path fill="#a57c6e" opacity="1.00" d=" M 250.46 286.72 C 252.25 284.41 254.13 282.17 256.06 279.96 C 259.77 282.95 263.31 286.59 264.35 291.41 C 265.51 296.83 266.91 302.26 269.76 307.07 C 264.91 305.22 264.53 299.46 263.66 295.11 C 262.93 290.69 260.73 285.67 256.05 284.34 C 254.08 284.85 252.28 285.84 250.46 286.72 Z" />
<path fill="#a57c6e" opacity="1.00" d=" M 260.30 307.52 C 261.57 309.85 261.87 312.51 262.42 315.07 C 266.26 320.84 272.22 325.59 273.19 332.87 C 274.96 340.39 268.07 346.10 262.34 349.54 C 259.12 350.84 255.39 352.08 254.53 355.93 C 259.12 355.90 263.71 355.93 268.29 356.19 C 263.28 357.02 258.23 357.58 253.16 358.02 C 251.33 358.12 249.49 357.97 247.66 357.85 C 254.64 350.90 263.88 346.71 270.93 339.83 C 272.28 337.56 271.47 334.60 271.26 332.08 C 270.69 327.38 267.15 323.98 263.84 320.97 C 262.52 319.38 260.84 317.86 260.40 315.76 C 260.10 313.02 260.38 310.26 260.30 307.52 Z" />
</g>
<g id="#aa6a48ff">
<path fill="#aa6a48" opacity="1.00" d=" M 250.46 286.72 C 252.28 285.84 254.08 284.85 256.05 284.34 C 260.73 285.67 262.93 290.69 263.66 295.11 C 264.53 299.46 264.91 305.22 269.76 307.07 C 271.97 307.86 274.40 308.22 276.37 309.56 C 278.20 311.18 278.59 313.76 278.99 316.05 C 279.22 320.55 279.05 325.07 279.18 329.59 C 276.32 325.26 277.18 319.59 274.25 315.28 C 272.35 311.59 268.27 310.12 264.74 308.50 C 263.90 310.66 263.13 312.86 262.42 315.07 C 261.87 312.51 261.57 309.85 260.30 307.52 C 259.07 304.82 257.58 302.23 256.57 299.47 C 255.65 298.77 254.56 300.06 253.61 300.27 C 246.92 301.25 241.14 305.82 234.11 305.06 C 236.74 302.83 239.70 300.68 240.82 297.25 C 244.03 293.74 247.64 290.59 250.46 286.72 Z" />
</g>
<g id="#a07a6cff">
<path fill="#a07a6c" opacity="1.00" d=" M 331.82 307.57 C 335.57 300.66 338.15 292.98 343.02 286.77 C 345.92 288.77 346.98 292.31 348.45 295.34 C 346.54 293.98 344.76 292.45 342.99 290.93 C 338.17 295.42 337.27 302.38 333.42 307.57 C 333.02 307.57 332.22 307.57 331.82 307.57 Z" />
<path fill="#a07a6c" opacity="1.00" d=" M 553.65 331.34 C 553.99 325.61 555.64 320.10 557.11 314.60 C 558.99 322.18 560.66 329.82 561.94 337.53 C 564.50 335.50 566.97 333.36 569.58 331.40 C 569.97 331.12 570.77 330.57 571.16 330.29 C 569.66 332.33 568.15 334.38 566.45 336.26 C 565.17 337.21 563.79 338.05 562.45 338.90 C 562.18 338.89 561.65 338.87 561.38 338.86 C 560.03 334.19 558.97 329.44 557.63 324.77 C 557.46 326.27 557.29 327.78 557.18 329.30 C 555.81 330.87 554.91 332.74 554.25 334.71 C 554.05 333.58 553.83 332.46 553.65 331.34 Z" />
</g>
<g id="#a16c52ff">
<path fill="#a16c52" opacity="1.00" d=" M 350.05 295.04 C 351.91 294.17 353.54 292.35 355.72 292.38 C 359.84 296.38 362.63 301.52 366.18 306.01 C 373.31 315.54 380.13 325.29 387.27 334.80 C 398.38 351.33 411.06 366.71 422.35 383.10 C 420.35 382.86 418.34 383.00 416.48 383.80 C 401.94 372.53 386.72 362.16 372.05 351.05 C 365.12 345.91 358.00 341.03 351.12 335.83 C 346.91 332.43 342.52 328.67 340.71 323.39 C 339.51 319.87 338.34 316.31 336.37 313.12 C 332.29 316.81 328.69 321.04 324.15 324.20 C 320.06 327.10 315.45 329.30 311.85 332.86 C 306.31 338.31 301.89 344.85 295.94 349.89 C 290.34 354.25 282.84 353.76 276.21 355.06 C 275.01 354.37 273.81 353.69 272.59 353.05 C 278.79 352.63 285.03 351.75 290.98 349.91 C 296.45 348.19 299.05 342.65 303.19 339.15 C 308.10 335.05 311.11 328.88 316.97 325.92 C 322.08 323.28 326.58 319.66 330.87 315.86 C 333.07 313.87 336.33 311.78 339.23 313.74 C 341.70 317.08 342.04 321.46 344.17 325.00 C 348.23 332.11 355.45 336.45 361.83 341.24 C 371.17 348.60 381.00 355.32 390.71 362.19 C 397.04 366.16 402.65 371.80 410.27 373.20 C 409.25 370.24 407.98 367.34 406.17 364.78 C 391.20 342.63 375.13 321.27 359.33 299.72 C 357.31 296.50 353.39 295.99 350.05 295.04 Z" />
</g>
<g id="#a77a64ff">
<path fill="#a77a64" opacity="1.00" d=" M 218.17 307.95 C 226.48 306.21 233.91 302.03 240.82 297.25 C 239.70 300.68 236.74 302.83 234.11 305.06 C 241.14 305.82 246.92 301.25 253.61 300.27 C 250.70 302.26 247.74 304.21 244.52 305.68 C 243.09 306.25 241.64 306.75 240.17 307.21 C 233.66 309.20 226.97 310.51 220.21 311.24 C 218.77 310.83 217.35 310.38 215.93 309.93 C 216.66 309.26 217.41 308.60 218.17 307.95 Z" />
</g>
<g id="#411c09ff">
<path fill="#411c09" opacity="1.00" d=" M 253.61 300.27 C 254.56 300.06 255.65 298.77 256.57 299.47 C 257.58 302.23 259.07 304.82 260.30 307.52 C 260.38 310.26 260.10 313.02 260.40 315.76 C 260.84 317.86 262.52 319.38 263.84 320.97 C 260.44 321.40 259.55 317.52 259.00 315.00 C 258.17 311.04 258.48 305.89 254.75 303.35 C 251.17 302.67 248.26 306.50 244.52 305.68 C 247.74 304.21 250.70 302.26 253.61 300.27 Z" />
<path fill="#411c09" opacity="1.00" d=" M 558.01 345.41 C 562.02 345.08 566.05 345.03 570.08 345.14 C 572.60 345.23 575.13 345.30 577.65 345.47 C 572.43 347.77 566.69 348.29 561.06 348.58 C 560.01 347.54 559.00 346.49 558.01 345.41 Z" />
</g>
<g id="#876f62ff">
<path fill="#876f62" opacity="1.00" d=" M 198.93 311.34 C 205.42 310.65 211.75 309.01 218.17 307.95 C 217.41 308.60 216.66 309.26 215.93 309.93 C 217.35 310.38 218.77 310.83 220.21 311.24 C 214.38 312.33 208.55 313.42 202.67 314.17 C 201.45 313.19 200.19 312.25 198.93 311.34 Z" />
</g>
<g id="#402418ff">
<path fill="#402418" opacity="1.00" d=" M 220.21 311.24 C 226.97 310.51 233.66 309.20 240.17 307.21 C 239.71 308.47 238.87 309.28 237.64 309.63 C 223.71 313.61 209.22 314.76 195.00 317.27 C 178.17 320.41 161.15 323.21 145.03 329.16 C 141.55 330.63 138.62 333.31 136.50 336.40 C 135.67 339.05 137.75 341.71 140.04 342.85 C 148.62 347.55 158.02 350.62 167.62 352.39 C 176.06 354.31 184.50 356.18 193.01 357.79 C 208.54 361.88 224.30 366.30 238.04 374.89 C 242.43 377.39 245.93 381.08 249.58 384.51 C 252.79 387.78 256.22 391.31 257.22 395.95 L 256.24 395.78 C 250.61 386.99 242.98 379.22 233.83 374.09 C 221.21 367.62 207.64 363.22 193.87 359.93 C 177.48 355.78 160.35 354.11 144.76 347.21 C 140.62 345.36 135.62 343.51 133.86 338.92 C 132.67 336.55 134.74 334.39 135.88 332.47 C 142.02 328.80 148.29 325.09 155.34 323.48 C 171.05 320.05 186.85 317.07 202.67 314.17 C 208.55 313.42 214.38 312.33 220.21 311.24 Z" />
</g>
<g id="#232121ff">
</g>
<g id="#191a1fff">
</g>
<g id="#21252aff">
</g>
<g id="#1f2126ff">
</g>
<g id="#fefefeff">
<path fill="#fefefe" opacity="1.00" d=" M 454.40 309.67 C 465.63 310.92 476.89 309.23 488.14 309.89 C 493.42 310.60 499.14 312.36 502.27 317.01 C 505.10 321.53 505.25 327.42 503.30 332.31 C 501.19 336.93 497.61 340.69 493.66 343.80 C 497.19 351.12 502.10 357.60 506.73 364.23 C 510.01 368.85 513.66 373.35 518.40 376.56 C 521.14 378.42 524.48 379.08 527.26 380.89 C 520.49 381.84 513.61 380.98 506.80 381.50 C 496.19 373.58 490.43 361.27 484.16 349.99 C 482.55 345.90 477.58 347.77 474.23 347.43 C 474.18 347.97 474.09 349.05 474.05 349.59 C 473.68 358.23 473.59 366.90 474.06 375.54 C 474.71 380.17 480.97 377.78 482.54 381.27 C 472.56 381.53 462.55 381.52 452.57 381.17 C 453.31 378.33 456.78 380.13 458.40 378.35 C 460.98 376.39 460.76 372.88 460.78 370.00 C 460.72 353.67 460.86 337.34 460.82 321.01 C 460.75 318.71 460.92 316.29 460.01 314.12 C 458.42 311.80 455.36 311.94 452.92 311.33 C 453.18 310.49 453.68 309.93 454.40 309.67 M 476.33 313.41 C 474.02 314.65 474.04 317.69 473.86 319.96 C 473.81 326.99 473.70 334.03 473.85 341.06 C 473.62 342.82 475.65 343.55 477.05 343.71 C 481.00 344.04 485.68 343.76 488.47 340.53 C 491.01 337.31 491.44 332.98 491.67 329.02 C 491.68 323.86 490.66 318.00 486.57 314.45 C 483.61 312.54 479.62 312.34 476.33 313.41 Z" />
<path fill="#fefefe" opacity="1.00" d=" M 1321.16 329.87 C 1326.18 329.56 1331.22 329.92 1336.25 329.70 C 1345.28 341.10 1353.47 353.15 1362.65 364.45 C 1363.06 364.97 1363.88 366.03 1364.29 366.56 C 1364.08 356.54 1364.76 346.49 1363.89 336.49 C 1363.73 333.12 1360.52 331.42 1357.97 329.92 C 1363.21 329.67 1368.46 329.83 1373.71 329.72 L 1373.70 330.75 C 1370.67 331.15 1367.88 333.23 1367.58 336.43 C 1365.93 349.22 1367.69 362.15 1367.02 374.99 C 1366.83 377.98 1366.86 380.98 1366.80 383.97 C 1361.95 379.15 1357.94 373.58 1353.78 368.18 C 1346.57 358.60 1339.43 348.93 1331.66 339.79 C 1331.74 342.37 1331.89 344.95 1331.90 347.54 C 1331.81 355.50 1331.73 363.47 1331.92 371.43 C 1331.23 376.15 1334.86 379.39 1338.51 381.57 C 1333.06 381.53 1327.61 381.63 1322.18 381.39 C 1324.74 379.39 1328.50 377.99 1328.66 374.17 C 1329.68 362.14 1329.00 350.01 1328.98 337.95 C 1329.10 333.47 1324.04 332.13 1321.16 329.87 Z" />
</g>
<g id="#fdfdfdff">
<path fill="#fdfdfd" opacity="1.00" d=" M 537.99 314.00 C 549.59 307.78 564.25 306.81 576.12 312.85 C 591.39 319.57 599.37 338.23 595.08 354.11 C 594.66 355.68 594.16 357.22 593.69 358.77 C 591.70 363.14 589.33 367.43 586.05 370.97 C 577.94 378.97 566.49 383.69 555.03 382.87 C 544.07 383.14 534.09 376.92 526.96 369.03 C 519.77 360.46 518.09 348.57 519.75 337.78 C 520.03 336.65 520.30 335.52 520.57 334.39 C 523.58 325.73 530.12 318.55 537.99 314.00 M 541.95 318.12 C 537.45 322.29 534.56 328.40 534.06 334.50 C 533.38 336.27 532.67 338.02 531.83 339.71 L 531.58 340.08 C 531.86 341.60 532.08 343.14 532.22 344.69 C 530.84 344.33 529.66 344.59 528.67 345.45 C 529.58 345.50 531.39 345.60 532.29 345.65 C 532.40 346.20 532.61 347.30 532.72 347.85 C 534.04 357.69 536.94 368.32 545.05 374.77 C 552.62 380.71 564.15 380.81 571.69 374.78 C 577.25 370.13 580.03 362.91 581.28 355.94 C 581.80 352.69 582.08 349.41 582.27 346.13 C 583.59 345.75 585.02 345.55 586.17 344.71 C 584.84 344.60 583.52 344.51 582.21 344.45 C 581.95 341.96 581.60 339.49 581.07 337.05 C 579.69 329.35 576.51 321.63 570.03 316.85 C 562.06 310.42 549.31 311.07 541.95 318.12 Z" />
<path fill="#fdfdfd" opacity="1.00" d=" M 624.69 314.78 C 625.61 312.97 626.07 310.64 627.98 309.58 C 630.38 308.78 630.88 311.81 631.81 313.29 C 639.83 331.71 648.98 349.60 657.08 367.99 C 659.50 372.85 662.80 379.10 669.01 379.26 C 672.72 379.65 675.27 375.94 675.13 372.55 C 675.34 354.03 675.51 335.50 675.23 316.99 C 675.11 313.17 671.24 311.90 668.04 311.98 L 667.39 311.04 C 670.09 309.17 674.16 310.55 677.41 310.08 C 680.46 310.20 683.52 310.22 686.58 310.11 C 693.17 310.30 699.80 309.42 706.37 310.48 C 718.52 312.53 730.15 320.53 734.38 332.44 C 736.11 337.68 736.92 343.21 736.38 348.72 C 735.07 354.96 733.46 361.31 729.71 366.60 C 722.82 376.33 710.88 381.86 699.05 381.65 C 682.03 381.13 665.00 381.41 647.97 381.23 C 645.39 381.02 642.55 381.89 640.24 380.41 C 642.55 379.11 647.64 378.68 646.21 374.86 C 643.67 368.38 640.54 362.15 637.84 355.73 C 637.31 354.67 636.79 353.62 636.26 352.57 C 628.43 352.45 620.61 352.42 612.78 352.57 L 612.32 353.64 C 610.37 358.24 608.37 362.83 606.85 367.59 C 606.19 370.22 605.39 373.40 607.15 375.78 C 609.33 378.37 612.96 378.57 615.90 379.81 L 615.23 381.23 C 607.00 381.33 598.74 381.55 590.52 381.15 C 592.03 378.62 595.44 378.52 597.30 376.34 C 599.77 373.22 601.21 369.45 602.88 365.87 C 609.97 348.76 617.49 331.84 624.69 314.78 M 688.23 318.97 C 687.50 333.31 688.10 347.68 687.87 362.04 C 688.00 366.71 687.12 371.88 689.93 375.99 C 691.07 375.20 693.19 374.76 692.63 376.94 C 702.56 381.01 714.72 374.56 718.67 364.89 C 720.93 360.27 722.33 355.19 722.39 350.03 C 722.64 342.57 722.13 334.78 718.74 327.99 C 716.16 322.19 711.82 316.68 705.67 314.49 C 701.62 313.15 697.21 312.93 693.04 313.71 C 690.48 314.15 688.04 316.18 688.23 318.97 M 624.21 326.10 C 620.89 333.51 617.38 340.88 614.81 348.59 C 621.48 348.68 628.15 348.66 634.82 348.67 C 631.19 341.19 628.12 333.44 624.21 326.10 Z" />
<path fill="#fdfdfd" opacity="1.00" d=" M 823.67 310.47 C 826.71 309.55 829.89 310.11 833.00 310.14 C 845.30 310.33 857.61 310.03 869.90 310.31 C 869.87 311.40 869.86 312.49 869.87 313.58 C 869.80 318.07 869.83 322.55 869.85 327.04 C 869.47 326.88 868.70 326.57 868.32 326.42 C 867.15 323.23 865.95 319.91 863.38 317.58 C 859.33 313.65 853.21 313.26 847.91 313.93 C 845.35 314.20 843.43 316.50 843.61 319.07 C 843.43 326.65 843.28 334.25 843.65 341.82 C 848.48 341.63 853.46 342.37 858.21 341.22 C 861.99 340.25 862.88 336.14 865.44 333.74 C 865.66 340.68 865.69 347.63 865.66 354.57 C 865.48 354.71 865.14 354.99 864.96 355.13 C 863.18 353.26 862.74 350.42 860.77 348.64 C 859.90 347.85 858.86 347.20 857.72 346.97 C 853.10 345.98 848.31 346.57 843.63 346.27 C 843.78 355.72 842.97 365.31 844.03 374.68 C 844.18 376.13 845.48 376.97 846.83 377.15 C 852.38 377.95 858.55 377.80 863.22 374.27 C 867.46 371.45 869.70 366.79 871.99 362.44 L 872.43 363.75 C 871.82 369.61 871.79 375.51 871.21 381.37 C 855.38 381.16 839.55 381.69 823.73 381.28 L 823.18 379.96 C 825.56 379.42 828.59 379.44 829.91 376.97 C 830.87 374.43 830.59 371.65 830.69 368.99 C 830.55 355.65 830.82 342.32 830.67 328.98 C 830.54 324.34 831.09 319.65 830.33 315.05 C 829.23 312.01 825.58 311.78 822.90 311.18 C 823.09 311.00 823.48 310.65 823.67 310.47 Z" />
<path fill="#fdfdfd" opacity="1.00" d=" M 1036.53 310.34 C 1043.35 309.95 1050.22 310.77 1057.04 309.89 C 1063.89 309.30 1071.96 309.56 1077.00 314.95 C 1082.63 320.76 1083.01 329.68 1081.31 337.16 C 1079.64 344.60 1073.73 350.97 1066.21 352.62 C 1063.80 352.68 1061.41 352.66 1059.03 352.53 C 1058.09 352.03 1057.16 351.54 1056.26 351.04 L 1056.36 350.39 C 1059.35 350.02 1062.81 350.38 1065.12 348.02 C 1070.70 343.04 1071.19 334.87 1070.74 327.91 C 1070.31 322.48 1068.46 316.28 1063.39 313.48 C 1060.74 312.22 1056.25 311.81 1054.98 315.13 C 1054.12 318.34 1054.33 321.71 1054.27 325.01 C 1054.32 340.33 1054.23 355.65 1054.23 370.98 C 1054.22 373.15 1054.40 375.34 1054.96 377.47 C 1056.65 379.63 1059.53 379.68 1062.03 379.96 C 1061.99 380.38 1061.92 381.22 1061.88 381.64 C 1053.78 381.62 1045.67 381.27 1037.59 381.74 C 1037.42 381.31 1037.09 380.44 1036.93 380.01 C 1040.01 380.21 1043.53 378.45 1043.37 374.91 C 1043.88 356.62 1043.49 338.30 1043.56 320.00 C 1043.41 317.85 1043.89 315.33 1042.40 313.57 C 1040.92 311.67 1037.94 312.29 1036.53 310.34 Z" />
<path fill="#fdfdfd" opacity="1.00" d=" M 1125.94 327.51 C 1127.71 328.79 1129.69 329.86 1131.98 329.75 C 1140.98 329.84 1149.99 329.80 1159.00 329.80 C 1162.04 329.93 1165.07 329.07 1167.33 327.05 C 1167.12 332.85 1166.96 338.65 1166.48 344.43 C 1164.40 341.10 1163.93 336.75 1160.78 334.13 C 1158.20 332.06 1154.73 332.48 1151.68 332.69 C 1150.91 335.75 1150.98 338.91 1151.01 342.04 C 1150.85 353.72 1151.00 365.41 1151.06 377.09 C 1151.45 380.54 1156.95 378.67 1157.14 382.01 C 1150.30 380.96 1143.37 382.16 1136.52 381.40 C 1136.20 381.23 1135.56 380.90 1135.24 380.73 C 1137.72 380.04 1142.11 379.66 1141.58 375.99 C 1141.71 361.56 1142.05 347.10 1141.30 332.68 C 1137.76 331.90 1133.70 332.41 1131.11 335.13 C 1128.29 337.71 1127.85 341.86 1125.29 344.59 C 1125.40 338.89 1126.00 333.21 1125.94 327.51 Z" />
<path fill="#fdfdfd" opacity="1.00" d=" M 1274.18 338.13 C 1282.14 328.32 1297.68 325.36 1308.14 332.89 C 1322.00 342.50 1322.00 364.94 1310.10 376.11 C 1307.01 379.26 1302.89 381.11 1298.74 382.40 C 1293.91 383.04 1288.97 382.94 1284.26 381.66 C 1267.78 374.98 1263.17 351.47 1274.18 338.13 M 1287.33 332.42 C 1282.57 334.24 1280.38 339.42 1279.10 343.98 C 1277.20 353.46 1278.24 363.71 1282.70 372.34 C 1285.50 377.97 1292.35 382.02 1298.56 379.43 C 1305.45 376.78 1307.89 368.78 1308.50 362.07 C 1309.05 353.09 1308.13 343.01 1301.92 335.98 C 1298.45 331.83 1292.30 330.52 1287.33 332.42 Z" />
<path fill="#fdfdfd" opacity="1.00" d=" M 1402.64 375.61 C 1410.41 360.22 1415.07 343.42 1422.81 328.05 C 1427.01 334.32 1429.18 341.70 1432.51 348.45 C 1436.59 357.39 1440.54 366.41 1444.93 375.22 C 1446.19 378.13 1448.87 379.82 1451.31 381.66 C 1444.44 381.59 1437.55 381.40 1430.70 381.90 C 1430.81 381.55 1431.03 380.87 1431.14 380.53 C 1432.71 379.97 1435.87 379.26 1434.94 376.90 C 1433.11 371.30 1430.44 366.03 1428.15 360.62 C 1422.81 360.66 1417.48 360.56 1412.16 360.83 C 1410.41 365.48 1408.31 370.11 1407.73 375.09 C 1407.88 378.96 1412.05 379.96 1415.01 381.04 C 1408.96 380.70 1402.90 380.54 1396.86 380.70 C 1399.22 379.59 1401.49 378.06 1402.64 375.61 M 1419.68 341.58 C 1417.61 347.07 1415.19 352.44 1413.47 358.06 C 1417.98 358.10 1422.48 358.09 1427.00 358.11 C 1424.76 352.51 1422.46 346.92 1419.68 341.58 Z" />
</g>
<g id="#fefffdff">
<path fill="#fefffd" opacity="1.00" d=" M 739.91 320.01 C 735.94 316.10 739.61 308.76 744.96 309.07 C 750.03 308.26 753.75 313.43 753.75 318.05 C 754.17 326.11 750.73 335.42 743.18 339.24 C 745.61 334.29 748.52 328.74 746.84 323.09 C 745.81 320.00 741.58 322.39 739.91 320.01 Z" />
</g>
<g id="#fefefdff">
<path fill="#fefefd" opacity="1.00" d=" M 762.70 318.62 C 767.19 311.10 776.66 307.99 785.04 308.83 C 790.10 309.34 795.89 309.57 799.74 313.34 C 800.08 319.29 799.80 325.35 799.58 331.32 C 798.02 330.44 797.56 328.65 796.87 327.14 C 795.14 323.11 793.16 319.11 790.26 315.80 C 786.59 311.59 779.71 311.07 775.17 314.11 C 770.19 317.77 770.08 325.50 773.77 330.14 C 778.38 336.08 785.51 339.22 791.59 343.39 C 797.56 346.99 802.55 352.81 803.09 360.01 C 804.83 370.54 796.53 380.18 786.61 382.49 C 781.92 383.40 777.13 383.31 772.47 382.36 C 768.02 381.19 763.31 379.75 760.17 376.19 C 760.29 369.70 759.53 363.23 759.85 356.74 C 762.54 358.21 762.75 361.50 764.10 363.96 C 767.00 369.65 770.98 375.35 777.08 377.88 C 781.40 379.49 787.16 379.02 790.04 375.01 C 792.97 370.68 792.18 364.71 789.69 360.35 C 787.11 355.63 782.24 352.98 778.07 349.86 C 772.71 346.02 766.34 343.08 762.58 337.42 C 759.31 331.71 759.84 324.38 762.70 318.62 Z" />
<path fill="#fefefd" opacity="1.00" d=" M 945.25 310.61 C 955.12 309.59 965.10 310.52 975.02 310.07 C 986.80 309.44 999.26 313.76 1006.88 323.03 C 1013.64 331.35 1014.97 342.83 1013.13 353.11 C 1012.37 355.95 1011.42 358.74 1010.44 361.51 C 1006.79 369.35 1000.10 375.58 992.12 378.86 C 986.06 381.30 979.43 381.79 972.97 381.53 C 964.35 381.22 955.73 381.43 947.12 381.34 C 946.27 379.35 948.82 379.67 950.00 379.12 C 951.92 378.94 953.33 377.31 953.60 375.45 C 955.02 365.99 953.34 356.44 954.07 346.95 C 954.44 337.58 953.82 328.22 953.73 318.86 C 953.58 316.83 953.39 314.58 951.96 313.01 C 949.74 312.15 947.36 311.87 945.06 311.35 C 945.11 311.17 945.21 310.79 945.25 310.61 M 969.40 314.35 C 967.40 315.49 966.45 317.76 966.68 320.01 C 966.60 337.33 966.71 354.66 966.59 371.98 C 966.49 374.60 968.64 376.78 971.03 377.52 C 974.98 378.81 979.24 377.92 983.12 376.79 C 990.38 374.53 995.81 368.30 997.92 361.10 C 1000.93 350.74 1000.80 339.33 997.28 329.11 C 994.66 321.09 987.63 313.93 978.90 313.34 C 975.75 313.19 972.25 312.72 969.40 314.35 Z" />
<path fill="#fefefd" opacity="1.00" d=" M 1222.95 336.91 C 1232.04 327.79 1247.19 326.43 1258.58 331.73 C 1258.63 336.48 1259.27 341.21 1259.09 345.96 C 1256.62 342.63 1255.34 338.53 1252.37 335.55 C 1247.92 330.62 1239.85 329.78 1234.26 333.23 C 1229.05 336.17 1226.47 342.15 1225.59 347.83 C 1224.23 356.97 1225.57 367.13 1231.60 374.46 C 1235.37 379.20 1242.04 381.85 1247.97 380.06 C 1250.17 379.45 1251.56 377.26 1251.76 375.07 C 1252.15 371.39 1252.57 367.52 1251.56 363.91 C 1250.45 361.18 1247.13 361.63 1244.77 361.54 L 1244.77 360.08 C 1251.56 360.23 1258.34 360.19 1265.14 360.25 C 1263.75 361.20 1262.23 361.98 1261.03 363.15 C 1259.81 368.65 1260.79 374.37 1260.56 379.95 C 1258.95 380.47 1257.38 381.03 1255.76 381.45 C 1254.57 381.69 1253.39 381.92 1252.22 382.16 C 1246.60 382.80 1240.93 382.62 1235.32 382.24 C 1234.56 382.05 1233.06 381.66 1232.31 381.46 C 1225.33 378.80 1219.27 373.19 1217.02 365.97 C 1213.97 356.15 1215.50 344.41 1222.95 336.91 Z" />
</g>
<g id="#fdfefdff">
<path fill="#fdfefd" opacity="1.00" d=" M 876.28 310.10 C 882.87 310.06 889.47 310.44 896.06 310.14 C 905.92 324.54 916.24 338.61 926.67 352.59 C 928.54 355.21 930.46 357.81 932.48 360.33 C 932.76 348.22 932.38 336.10 932.49 323.99 C 932.37 321.31 932.75 318.37 931.22 316.00 C 929.98 312.81 926.32 312.26 923.62 310.89 C 927.87 309.30 932.52 310.36 936.95 310.13 C 939.69 310.35 942.66 309.56 945.25 310.61 C 945.21 310.79 945.11 311.17 945.06 311.35 C 940.03 312.50 936.66 316.96 936.61 322.09 C 935.92 342.57 936.74 363.08 936.32 383.57 C 935.01 384.20 933.98 382.84 933.13 382.05 C 923.84 369.60 914.53 357.14 905.30 344.64 C 900.28 338.02 895.98 330.81 890.12 324.86 C 890.29 333.90 889.56 342.93 890.07 351.96 C 890.50 359.59 888.81 367.50 891.20 374.93 C 892.28 378.08 895.82 378.75 898.50 379.96 L 898.23 381.19 C 890.98 381.53 883.69 381.51 876.45 381.21 C 878.30 379.13 881.77 379.64 883.19 377.02 C 885.32 374.55 885.58 371.14 885.68 368.02 C 885.94 352.66 885.89 337.29 885.86 321.92 C 885.78 320.29 885.71 318.54 884.75 317.15 C 883.25 314.16 880.04 312.65 876.91 312.00 C 876.75 311.52 876.44 310.58 876.28 310.10 Z" />
</g>
<g id="#9e715fff">
<path fill="#9e715f" opacity="1.00" d=" M 151.37 317.55 C 167.13 314.86 183.11 313.65 198.93 311.34 C 200.19 312.25 201.45 313.19 202.67 314.17 C 186.85 317.07 171.05 320.05 155.34 323.48 C 148.29 325.09 142.02 328.80 135.88 332.47 C 138.03 329.24 141.02 326.75 143.53 323.83 C 149.19 321.69 155.11 320.39 161.02 319.21 C 149.77 320.30 138.58 323.10 128.63 328.58 C 126.23 329.96 124.18 331.86 122.38 333.94 C 121.81 333.70 120.68 333.23 120.11 332.99 C 117.96 333.16 115.81 333.32 113.66 333.43 C 122.54 322.94 137.02 321.32 149.51 317.95 C 149.97 317.85 150.90 317.65 151.37 317.55 Z" />
</g>
<g id="#1a1b1fff">
</g>
<g id="#293038ff">
</g>
<g id="#252d35ff">
</g>
<g id="#45302bff">
<path fill="#45302b" opacity="1.00" d=" M 324.15 324.20 C 328.69 321.04 332.29 316.81 336.37 313.12 C 338.34 316.31 339.51 319.87 340.71 323.39 C 342.52 328.67 346.91 332.43 351.12 335.83 C 358.00 341.03 365.12 345.91 372.05 351.05 C 386.72 362.16 401.94 372.53 416.48 383.80 C 420.54 386.69 424.36 389.89 428.31 392.93 C 426.05 392.91 423.65 392.80 421.89 391.21 C 404.74 377.90 386.52 366.05 369.59 352.46 C 365.96 349.63 361.52 348.03 358.01 345.02 C 355.14 342.52 351.92 340.48 348.96 338.12 C 343.71 332.59 338.83 326.68 335.23 319.92 C 329.98 323.03 324.56 325.92 319.68 329.63 C 315.56 332.62 313.27 337.66 308.55 339.90 C 302.41 346.21 296.41 353.94 287.13 355.37 C 274.46 357.16 261.78 359.85 248.95 359.68 C 250.32 359.06 251.69 358.38 253.16 358.02 C 258.23 357.58 263.28 357.02 268.29 356.19 C 270.94 355.88 273.57 355.47 276.21 355.06 C 282.84 353.76 290.34 354.25 295.94 349.89 C 301.89 344.85 306.31 338.31 311.85 332.86 C 315.45 329.30 320.06 327.10 324.15 324.20 Z" />
</g>
<g id="#2d2e36ff">
</g>
<g id="#262e37ff">
</g>
<g id="#1c1f26ff">
</g>
<g id="#262f38ff">
</g>
<g id="#2c2f35ff">
</g>
<g id="#542615ff">
<path fill="#542615" opacity="1.00" d=" M 278.99 316.05 C 280.18 316.88 281.36 317.71 282.55 318.56 C 281.93 322.46 281.38 326.36 280.65 330.24 C 280.50 330.47 280.20 330.94 280.05 331.17 C 279.83 330.77 279.40 329.98 279.18 329.59 C 279.05 325.07 279.22 320.55 278.99 316.05 Z" />
</g>
<g id="#3a2a28ff">
<path fill="#3a2a28" opacity="1.00" d=" M 128.36 320.48 C 134.53 317.97 141.28 317.76 147.80 316.92 C 148.23 317.18 149.08 317.69 149.51 317.95 C 137.02 321.32 122.54 322.94 113.66 333.43 C 111.77 336.21 110.19 339.52 110.71 342.98 C 111.65 349.21 116.03 354.41 121.17 357.80 C 135.33 366.81 151.64 371.37 166.78 378.36 C 176.26 382.38 185.87 388.94 188.64 399.46 C 188.39 400.10 187.99 400.69 187.42 401.23 C 184.45 398.19 182.82 394.12 179.78 391.14 C 171.01 381.61 158.00 378.27 146.40 373.55 C 138.99 371.04 132.38 366.78 125.16 363.86 C 116.96 360.62 110.36 353.67 107.60 345.31 C 106.45 338.45 109.87 331.45 115.54 327.59 C 119.62 324.89 123.80 322.28 128.36 320.48 Z" />
</g>
<g id="#52200bff">
<path fill="#52200b" opacity="1.00" d=" M 128.63 328.58 C 138.58 323.10 149.77 320.30 161.02 319.21 C 155.11 320.39 149.19 321.69 143.53 323.83 C 137.37 326.00 130.52 327.98 126.31 333.33 C 124.36 336.11 122.61 340.11 124.76 343.27 C 127.86 348.24 133.28 351.08 138.42 353.52 C 150.12 358.57 162.41 362.08 174.63 365.65 C 173.68 366.44 172.74 367.23 171.80 368.03 C 159.48 363.27 146.25 360.84 134.62 354.36 C 130.30 351.93 125.87 349.25 122.89 345.20 C 120.44 341.92 121.02 337.54 122.38 333.94 C 124.18 331.86 126.23 329.96 128.63 328.58 Z" />
</g>
<g id="#ac6c4bff">
<path fill="#ac6c4b" opacity="1.00" d=" M 126.31 333.33 C 130.52 327.98 137.37 326.00 143.53 323.83 C 141.02 326.75 138.03 329.24 135.88 332.47 C 134.74 334.39 132.67 336.55 133.86 338.92 C 135.62 343.51 140.62 345.36 144.76 347.21 C 160.35 354.11 177.48 355.78 193.87 359.93 C 194.29 361.00 194.71 362.07 195.14 363.14 C 191.03 363.01 187.31 361.22 183.38 360.30 C 181.93 361.42 180.71 362.81 179.45 364.14 C 180.11 364.37 181.42 364.83 182.07 365.06 C 181.69 365.61 180.93 366.72 180.55 367.27 C 178.57 366.72 176.60 366.20 174.63 365.65 C 162.41 362.08 150.12 358.57 138.42 353.52 C 133.28 351.08 127.86 348.24 124.76 343.27 C 122.61 340.11 124.36 336.11 126.31 333.33 Z" />
</g>
<g id="#300d01ff">
<path fill="#300d01" opacity="1.00" d=" M 557.63 324.77 C 558.97 329.44 560.03 334.19 561.38 338.86 C 560.22 340.44 559.06 342.00 557.88 343.55 C 557.25 338.83 557.08 334.06 557.18 329.30 C 557.29 327.78 557.46 326.27 557.63 324.77 Z" />
</g>
<g id="#292e38ff">
</g>
<g id="#382522ff">
</g>
<g id="#fafcfcff">
<path fill="#fafcfc" opacity="1.00" d=" M 1082.37 375.37 C 1089.65 359.90 1095.13 343.63 1102.05 328.01 C 1104.19 329.75 1104.89 332.49 1105.99 334.91 C 1111.22 346.98 1116.88 358.85 1122.16 370.90 C 1124.04 374.94 1126.22 379.43 1130.73 381.03 C 1130.58 381.22 1130.26 381.60 1130.10 381.79 C 1123.52 381.70 1116.92 381.42 1110.34 381.87 C 1110.73 379.36 1115.37 380.13 1114.54 377.10 C 1112.65 371.45 1109.96 366.08 1107.51 360.65 C 1102.31 360.79 1097.12 360.77 1091.93 360.87 C 1090.08 365.42 1087.81 370.02 1087.46 374.98 C 1087.43 378.55 1090.97 380.23 1094.05 380.53 C 1093.90 380.89 1093.61 381.61 1093.46 381.97 C 1087.38 381.22 1081.23 381.77 1075.13 381.76 C 1077.66 379.74 1081.19 378.71 1082.37 375.37 M 1093.04 357.97 C 1097.52 358.14 1102.01 358.11 1106.51 358.10 C 1104.28 352.53 1101.72 347.11 1099.54 341.52 C 1096.67 346.69 1095.11 352.46 1093.04 357.97 Z" />
</g>
<g id="#fbfbfbff">
<path fill="#fbfbfb" opacity="1.00" d=" M 1186.78 331.90 C 1187.31 330.64 1187.73 329.18 1189.01 328.45 C 1191.34 331.00 1191.99 334.55 1193.50 337.58 C 1198.27 347.95 1202.85 358.40 1207.29 368.91 C 1209.02 372.54 1210.36 376.74 1213.76 379.20 C 1214.91 380.06 1216.07 380.92 1217.19 381.86 L 1216.56 381.83 C 1210.06 381.60 1203.55 381.63 1197.05 381.63 C 1197.04 381.29 1197.02 380.61 1197.00 380.27 C 1197.78 380.24 1199.33 380.17 1200.10 380.13 C 1200.53 378.80 1201.25 377.42 1200.55 376.03 C 1198.54 370.87 1196.08 365.89 1193.97 360.77 C 1188.72 360.76 1183.48 360.62 1178.25 360.85 C 1176.73 365.57 1174.46 370.10 1173.64 375.01 C 1173.42 378.57 1177.19 380.00 1180.03 380.67 C 1180.15 380.99 1180.40 381.65 1180.52 381.98 C 1174.47 381.27 1168.34 381.59 1162.27 381.68 C 1164.00 379.62 1167.07 379.09 1168.40 376.60 C 1171.81 370.53 1173.78 363.78 1176.50 357.39 C 1179.86 348.87 1183.53 340.47 1186.78 331.90 M 1179.46 357.94 C 1183.91 357.98 1188.36 358.15 1192.82 358.02 C 1190.30 352.63 1188.15 347.09 1185.86 341.61 C 1183.49 346.96 1181.40 352.42 1179.46 357.94 Z" />
</g>
<g id="#9c6d53ff">
<path fill="#9c6d53" opacity="1.00" d=" M 554.25 334.71 C 554.91 332.74 555.81 330.87 557.18 329.30 C 557.08 334.06 557.25 338.83 557.88 343.55 C 559.06 342.00 560.22 340.44 561.38 338.86 C 561.65 338.87 562.18 338.89 562.45 338.90 C 564.40 339.52 566.30 340.29 568.25 340.94 C 567.67 340.95 566.50 340.95 565.92 340.96 C 567.19 342.47 568.54 343.90 570.08 345.14 C 566.05 345.03 562.02 345.08 558.01 345.41 C 559.00 346.49 560.01 347.54 561.06 348.58 C 562.71 349.05 564.39 349.44 566.10 349.71 C 565.36 349.83 563.88 350.05 563.14 350.16 C 564.99 352.15 566.88 354.13 568.48 356.34 C 569.08 357.37 569.67 358.42 570.24 359.48 C 569.23 358.79 568.23 358.08 567.26 357.35 C 565.51 355.96 563.85 354.45 562.21 352.95 C 560.75 358.48 559.20 364.02 558.55 369.73 C 558.12 371.89 557.50 374.01 556.91 376.13 C 555.67 372.22 555.07 368.16 554.60 364.09 L 555.18 365.40 C 555.74 366.65 556.31 367.89 556.89 369.14 C 557.28 361.70 557.22 354.25 556.90 346.81 C 555.62 348.13 554.36 349.46 553.11 350.80 C 553.67 353.59 555.11 356.65 553.44 359.35 C 553.00 357.46 552.57 355.62 552.16 353.75 C 549.08 355.94 546.03 358.19 542.87 360.26 C 544.78 356.97 547.11 353.95 549.54 351.04 C 543.91 349.33 538.13 348.19 532.54 346.36 C 533.60 345.76 534.67 345.17 535.83 344.77 C 542.78 345.68 549.85 345.97 556.83 345.20 C 555.51 343.99 554.18 342.80 552.74 341.75 C 552.11 341.28 551.49 340.81 550.89 340.33 C 547.96 337.43 545.50 334.08 542.33 331.42 C 542.88 331.45 543.96 331.50 544.51 331.52 C 547.08 333.89 549.79 336.10 552.60 338.19 C 552.95 335.66 553.29 333.12 553.52 330.58 L 553.65 331.34 C 553.83 332.46 554.05 333.58 554.25 334.71 Z" />
</g>
<g id="#fbfbfcff">
<path fill="#fbfbfc" opacity="1.00" d=" M 1375.91 329.70 C 1382.48 329.76 1389.06 329.96 1395.64 329.61 L 1395.78 330.74 C 1394.50 330.99 1393.25 331.30 1392.04 331.67 C 1389.57 334.17 1390.17 337.83 1390.11 341.01 C 1390.32 352.35 1389.98 363.69 1390.20 375.03 C 1390.31 376.60 1390.09 378.66 1391.87 379.41 C 1393.00 379.94 1394.20 380.33 1395.41 380.77 C 1395.77 380.75 1396.50 380.72 1396.86 380.70 C 1402.90 380.54 1408.96 380.70 1415.01 381.04 C 1412.40 381.85 1409.66 381.58 1407.00 381.59 C 1398.99 381.56 1390.99 381.47 1382.99 381.52 C 1380.23 381.51 1377.44 381.81 1374.78 381.01 C 1377.14 379.97 1381.28 379.56 1380.83 376.02 C 1380.90 362.34 1381.00 348.64 1380.75 334.97 C 1380.84 332.22 1377.98 331.32 1375.88 330.66 L 1375.91 329.70 Z" />
</g>
<g id="#14141aff">
</g>
<g id="#33241fff">
</g>
<g id="#273038ff">
</g>
<g id="#ad6f4cff">
<path fill="#ad6f4c" opacity="1.00" d=" M 113.66 333.43 C 115.81 333.32 117.96 333.16 120.11 332.99 C 120.68 333.23 121.81 333.70 122.38 333.94 C 121.02 337.54 120.44 341.92 122.89 345.20 C 125.87 349.25 130.30 351.93 134.62 354.36 C 146.25 360.84 159.48 363.27 171.80 368.03 C 172.40 368.25 173.60 368.71 174.20 368.93 C 173.79 369.90 173.38 370.86 172.98 371.84 C 170.39 371.04 167.88 369.90 165.18 369.52 C 163.93 370.47 162.87 371.65 161.77 372.76 C 164.56 374.15 167.42 375.41 170.27 376.68 C 169.10 377.24 167.94 377.80 166.78 378.36 C 151.64 371.37 135.33 366.81 121.17 357.80 C 116.03 354.41 111.65 349.21 110.71 342.98 C 110.19 339.52 111.77 336.21 113.66 333.43 Z" />
</g>
<g id="#17181dff">
</g>
<g id="#928179ff">
<path fill="#928179" opacity="1.00" d=" M 531.83 339.71 C 532.67 338.02 533.38 336.27 534.06 334.50 C 533.29 337.91 532.95 341.39 532.71 344.87 C 534.04 344.35 535.39 343.86 536.76 343.40 C 539.13 342.66 541.57 342.19 544.02 341.75 C 546.32 341.37 548.61 340.86 550.89 340.33 C 551.49 340.81 552.11 341.28 552.74 341.75 C 547.07 342.50 541.30 343.00 535.83 344.77 C 534.67 345.17 533.60 345.76 532.54 346.36 L 532.72 347.85 C 532.61 347.30 532.40 346.20 532.29 345.65 C 531.39 345.60 529.58 345.50 528.67 345.45 C 529.66 344.59 530.84 344.33 532.22 344.69 C 532.08 343.14 531.86 341.60 531.58 340.08 L 531.83 339.71 Z" />
</g>
<g id="#251f1fff">
</g>
<g id="#1c1d22ff">
</g>
<g id="#452e24ff">
</g>
<g id="#9d7866ff">
<path fill="#9d7866" opacity="1.00" d=" M 581.07 337.05 C 581.60 339.49 581.95 341.96 582.21 344.45 C 583.52 344.51 584.84 344.60 586.17 344.71 C 585.02 345.55 583.59 345.75 582.27 346.13 C 582.08 349.41 581.80 352.69 581.28 355.94 C 581.57 352.81 581.67 349.66 581.68 346.51 L 580.89 346.63 C 575.87 347.22 571.10 349.06 566.10 349.71 C 564.39 349.44 562.71 349.05 561.06 348.58 C 566.69 348.29 572.43 347.77 577.65 345.47 C 575.13 345.30 572.60 345.23 570.08 345.14 C 568.54 343.90 567.19 342.47 565.92 340.96 C 566.50 340.95 567.67 340.95 568.25 340.94 C 572.23 341.81 576.22 342.63 580.24 343.37 C 580.56 343.54 581.20 343.90 581.52 344.08 C 581.40 341.73 581.32 339.39 581.07 337.05 Z" />
</g>
<g id="#1a1d20ff">
</g>
<g id="#1f2026ff">
</g>
<g id="#361403ff">
<path fill="#361403" opacity="1.00" d=" M 535.83 344.77 C 541.30 343.00 547.07 342.50 552.74 341.75 C 554.18 342.80 555.51 343.99 556.83 345.20 C 549.85 345.97 542.78 345.68 535.83 344.77 Z" />
</g>
<g id="#2b2f35ff">
</g>
<g id="#272d31ff">
</g>
<g id="#2b3034ff">
</g>
<g id="#2b2e35ff">
</g>
<g id="#472012ff">
<path fill="#472012" opacity="1.00" d=" M 553.11 350.80 C 554.36 349.46 555.62 348.13 556.90 346.81 C 557.22 354.25 557.28 361.70 556.89 369.14 C 556.31 367.89 555.74 366.65 555.18 365.40 L 554.60 364.09 C 554.18 362.52 553.82 360.92 553.44 359.35 C 555.11 356.65 553.67 353.59 553.11 350.80 Z" />
</g>
<g id="#41322cff">
</g>
<g id="#181a1fff">
</g>
<g id="#b27554ff">
<path fill="#b27554" opacity="1.00" d=" M 254.53 355.93 C 255.39 352.08 259.12 350.84 262.34 349.54 C 262.60 350.32 263.10 351.88 263.36 352.66 C 266.44 352.53 269.53 352.65 272.59 353.05 C 273.81 353.69 275.01 354.37 276.21 355.06 C 273.57 355.47 270.94 355.88 268.29 356.19 C 263.71 355.93 259.12 355.90 254.53 355.93 Z" />
</g>
<g id="#121115ff">
</g>
<g id="#49372bff">
</g>
<g id="#101015ff">
</g>
<g id="#b26a44ff">
<path fill="#b26a44" opacity="1.00" d=" M 183.38 360.30 C 187.31 361.22 191.03 363.01 195.14 363.14 C 201.02 363.72 206.19 366.90 211.92 368.13 C 219.73 369.77 227.48 372.41 234.14 376.91 C 239.62 381.38 244.68 386.35 249.82 391.20 C 251.35 392.65 253.56 395.41 250.71 396.74 C 245.91 397.91 240.89 396.91 236.00 397.27 C 233.74 397.09 230.71 398.09 229.19 395.83 C 226.23 391.83 223.72 387.42 219.79 384.24 C 215.68 380.12 210.25 377.85 205.64 374.41 C 198.83 369.21 190.14 367.43 182.07 365.06 C 181.42 364.83 180.11 364.37 179.45 364.14 C 180.71 362.81 181.93 361.42 183.38 360.30 Z" />
</g>
<g id="#976a57ff">
<path fill="#976a57" opacity="1.00" d=" M 193.87 359.93 C 207.64 363.22 221.21 367.62 233.83 374.09 C 242.98 379.22 250.61 386.99 256.24 395.78 C 256.67 396.91 257.06 398.06 257.41 399.22 C 247.64 399.34 237.87 399.33 228.10 399.13 C 223.98 386.94 212.15 380.30 201.37 374.84 C 202.80 374.74 204.22 374.57 205.64 374.41 C 210.25 377.85 215.68 380.12 219.79 384.24 C 223.72 387.42 226.23 391.83 229.19 395.83 C 230.71 398.09 233.74 397.09 236.00 397.27 C 240.89 396.91 245.91 397.91 250.71 396.74 C 253.56 395.41 251.35 392.65 249.82 391.20 C 244.68 386.35 239.62 381.38 234.14 376.91 C 227.48 372.41 219.73 369.77 211.92 368.13 C 206.19 366.90 201.02 363.72 195.14 363.14 C 194.71 362.07 194.29 361.00 193.87 359.93 Z" />
</g>
<g id="#9d6b54ff">
<path fill="#9d6b54" opacity="1.00" d=" M 182.07 365.06 C 190.14 367.43 198.83 369.21 205.64 374.41 C 204.22 374.57 202.80 374.74 201.37 374.84 C 194.61 371.85 187.68 369.23 180.55 367.27 C 180.93 366.72 181.69 365.61 182.07 365.06 Z" />
</g>
<g id="#3f2421ff">
<path fill="#3f2421" opacity="1.00" d=" M 174.63 365.65 C 176.60 366.20 178.57 366.72 180.55 367.27 C 187.68 369.23 194.61 371.85 201.37 374.84 C 212.15 380.30 223.98 386.94 228.10 399.13 C 237.87 399.33 247.64 399.34 257.41 399.22 C 257.47 399.62 257.61 400.42 257.68 400.82 C 248.80 401.63 239.89 401.25 230.99 401.25 C 226.90 401.58 224.55 397.72 221.30 395.96 C 220.72 396.90 220.15 397.85 219.59 398.81 C 219.09 397.84 218.59 396.88 218.10 395.93 C 215.17 390.16 210.55 385.27 204.97 382.01 C 195.22 376.55 184.68 372.72 174.20 368.93 C 173.60 368.71 172.40 368.25 171.80 368.03 C 172.74 367.23 173.68 366.44 174.63 365.65 Z" />
</g>
<g id="#b46b44ff">
<path fill="#b46b44" opacity="1.00" d=" M 165.18 369.52 C 167.88 369.90 170.39 371.04 172.98 371.84 C 178.59 373.15 183.89 375.32 189.06 377.83 C 195.96 379.52 202.75 382.14 208.26 386.76 C 210.14 388.52 210.89 391.30 210.54 393.82 C 206.95 395.63 202.81 395.49 198.90 395.86 C 195.76 395.96 192.50 396.53 189.44 395.60 C 185.70 391.28 183.35 385.84 179.11 381.93 C 176.47 379.72 173.35 378.16 170.27 376.68 C 167.42 375.41 164.56 374.15 161.77 372.76 C 162.87 371.65 163.93 370.47 165.18 369.52 Z" />
</g>
<g id="#9c6952ff">
<path fill="#9c6952" opacity="1.00" d=" M 174.20 368.93 C 184.68 372.72 195.22 376.55 204.97 382.01 C 210.55 385.27 215.17 390.16 218.10 395.93 C 218.21 396.78 218.45 398.48 218.56 399.33 C 208.59 399.34 198.61 399.18 188.64 399.46 C 185.87 388.94 176.26 382.38 166.78 378.36 C 167.94 377.80 169.10 377.24 170.27 376.68 C 173.35 378.16 176.47 379.72 179.11 381.93 C 183.35 385.84 185.70 391.28 189.44 395.60 C 192.50 396.53 195.76 395.96 198.90 395.86 C 202.81 395.49 206.95 395.63 210.54 393.82 C 210.89 391.30 210.14 388.52 208.26 386.76 C 202.75 382.14 195.96 379.52 189.06 377.83 C 183.89 375.32 178.59 373.15 172.98 371.84 C 173.38 370.86 173.79 369.90 174.20 368.93 Z" />
</g>
<g id="#1c1f24ff">
</g>
<g id="#11151aff">
</g>
<g id="#8a6d64ff">
<path fill="#8a6d64" opacity="1.00" d=" M 416.48 383.80 C 418.34 383.00 420.35 382.86 422.35 383.10 C 424.49 386.11 426.90 388.92 429.10 391.89 C 428.90 392.15 428.51 392.67 428.31 392.93 C 424.36 389.89 420.54 386.69 416.48 383.80 Z" />
</g>
<g id="#0b0c12ff">
</g>
<g id="#0b0d11ff">
</g>
<g id="#121418ff">
</g>
<g id="#0d0e14ff">
</g>
<g id="#121318ff">
</g>
<g id="#16191dff">
</g>
<g id="#8d9093ff">
</g>
<g id="#2a2527ff">
</g>
<g id="#2c2828ff">
</g>
<g id="#322724ff">
</g>
<g id="#362a29ff">
</g>
<g id="#3b2d2aff">
</g>
<g id="#302325ff">
</g>
<g id="#362825ff">
</g>
<g id="#896e66ff">
<path fill="#896e66" opacity="1.00" d=" M 618.20 437.22 C 624.44 437.33 630.75 436.75 636.95 437.78 C 634.99 440.51 631.34 439.82 628.46 440.38 C 626.86 446.39 626.20 452.61 624.52 458.59 C 623.41 458.92 622.28 459.07 621.11 459.06 C 622.57 452.82 624.02 446.57 625.22 440.28 C 622.88 440.19 620.54 440.09 618.21 439.95 C 618.21 439.26 618.21 437.90 618.20 437.22 Z" />
</g>
<g id="#8a7066ff">
<path fill="#8a7066" opacity="1.00" d=" M 647.44 437.61 C 651.79 436.40 657.36 436.99 660.03 441.08 C 663.58 446.09 661.00 453.08 656.66 456.69 C 651.39 460.55 642.09 460.44 639.01 453.89 C 636.00 447.29 641.02 439.70 647.44 437.61 M 642.41 444.98 C 641.94 447.72 641.00 450.80 642.62 453.36 C 645.22 457.13 651.06 457.10 654.46 454.43 C 656.57 452.92 657.43 450.37 658.51 448.13 C 658.46 445.34 658.11 442.02 655.27 440.65 C 650.61 438.09 644.85 440.54 642.41 444.98 Z" />
</g>
<g id="#8c7269ff">
<path fill="#8c7269" opacity="1.00" d=" M 669.13 443.89 C 669.91 441.17 669.55 437.07 673.28 436.72 C 673.54 442.43 670.69 447.90 671.49 453.60 C 673.82 458.16 681.56 456.58 682.95 451.97 C 684.28 447.23 684.39 442.23 685.62 437.46 C 686.73 437.37 687.85 437.29 688.98 437.22 C 688.12 442.66 687.11 448.14 685.30 453.36 C 683.08 459.56 673.76 461.56 669.36 456.61 C 666.26 452.93 668.42 448.03 669.13 443.89 Z" />
</g>
<g id="#90776eff">
<path fill="#90776e" opacity="1.00" d=" M 697.82 437.16 C 702.95 437.61 709.94 435.50 713.36 440.55 C 713.20 441.37 712.90 443.01 712.75 443.83 C 712.48 443.59 711.93 443.12 711.66 442.89 C 709.42 440.52 706.26 439.19 702.99 439.83 C 699.27 439.62 699.72 444.20 698.86 446.69 C 698.10 445.50 697.35 444.31 696.67 443.10 C 696.92 441.09 697.39 439.13 697.82 437.16 Z" />
</g>
<g id="#7f6760ff">
<path fill="#7f6760" opacity="1.00" d=" M 726.31 437.41 C 729.87 436.97 734.03 436.86 737.01 439.20 C 735.26 442.04 731.59 439.61 728.98 439.91 C 726.12 439.42 722.26 442.61 724.58 445.40 C 727.35 446.86 730.83 446.62 733.35 448.61 C 736.29 451.08 734.88 456.15 731.71 457.76 C 727.57 460.20 722.59 459.25 718.25 457.95 C 718.24 457.24 718.23 455.81 718.22 455.10 C 722.10 455.92 726.53 457.54 730.24 455.29 C 731.72 454.52 732.34 452.34 730.81 451.27 C 727.75 449.26 723.01 449.58 721.13 445.98 C 719.16 442.23 722.49 437.95 726.31 437.41 Z" />
</g>
<g id="#8e7063ff">
<path fill="#8e7063" opacity="1.00" d=" M 757.29 441.20 C 758.74 436.57 767.06 435.56 768.50 440.72 C 768.83 444.00 765.16 445.68 763.02 447.48 C 764.09 449.00 765.15 450.55 766.42 451.94 C 768.14 451.58 767.80 449.14 768.64 447.95 C 769.55 448.59 770.43 449.26 771.29 450.00 C 770.69 451.40 769.99 452.75 769.44 454.17 C 769.53 455.80 770.48 457.37 769.88 459.03 C 768.60 458.67 767.49 457.91 766.39 457.21 C 763.11 458.51 759.56 460.02 755.97 459.10 C 753.69 458.59 751.87 456.41 752.18 454.02 C 752.10 450.48 755.62 448.70 758.12 446.95 C 757.71 445.07 756.86 443.14 757.29 441.20 M 761.34 440.44 C 759.34 441.42 759.81 445.13 761.92 445.47 C 763.78 444.80 765.93 443.44 765.85 441.19 C 765.27 439.24 762.63 439.22 761.34 440.44 M 755.97 454.86 C 758.38 457.44 762.38 456.30 765.18 454.95 C 763.74 452.47 761.97 450.21 760.00 448.14 C 757.95 449.60 753.94 451.90 755.97 454.86 Z" />
</g>
<g id="#8f7368ff">
<path fill="#8f7368" opacity="1.00" d=" M 790.25 437.27 C 796.18 437.41 802.12 437.28 808.05 437.17 C 808.00 437.82 807.89 439.10 807.83 439.74 C 805.28 439.83 802.73 439.98 800.19 440.10 C 798.96 446.36 797.59 452.59 796.02 458.77 C 795.34 458.75 793.97 458.71 793.28 458.70 C 794.47 452.44 795.72 446.19 797.06 439.97 C 794.64 439.89 792.23 439.86 789.83 439.83 C 789.93 439.19 790.15 437.91 790.25 437.27 Z" />
</g>
<g id="#816860ff">
<path fill="#816860" opacity="1.00" d=" M 814.03 437.26 C 818.68 437.36 824.00 436.09 828.12 438.84 C 831.02 440.89 830.36 444.74 830.09 447.79 C 828.20 449.23 826.34 450.71 824.50 452.21 C 825.59 454.47 826.69 456.73 827.81 459.00 C 826.65 458.89 825.50 458.79 824.36 458.69 C 823.37 456.63 822.50 454.50 821.19 452.63 C 819.23 451.66 816.84 452.05 814.81 452.57 C 814.14 454.42 813.80 456.38 813.10 458.22 C 812.09 458.59 811.07 458.93 810.05 459.23 C 810.78 454.80 811.83 450.44 812.51 446.02 C 813.00 443.09 813.51 440.17 814.03 437.26 M 817.20 440.17 C 816.35 443.32 815.63 446.52 815.08 449.74 C 818.08 449.64 821.21 450.09 824.13 449.22 C 826.87 447.52 828.78 442.74 825.43 440.66 C 822.83 439.60 819.92 440.20 817.20 440.17 Z" />
</g>
<g id="#8c6f64ff">
<path fill="#8c6f64" opacity="1.00" d=" M 845.85 438.75 C 846.76 437.62 848.29 437.52 849.45 436.75 C 851.48 444.38 853.83 451.94 855.34 459.69 C 852.12 459.44 851.22 456.65 850.51 454.00 C 846.87 453.61 843.21 453.44 839.56 453.34 C 838.32 455.33 837.08 457.31 835.84 459.29 C 835.11 459.09 833.66 458.69 832.94 458.49 C 834.51 456.04 836.11 453.62 837.67 451.17 C 840.36 447.01 842.60 442.52 845.85 438.75 M 840.97 451.10 C 844.03 451.24 847.10 451.28 850.18 451.23 C 849.41 447.72 848.59 444.24 847.67 440.78 C 845.22 444.08 843.07 447.58 840.97 451.10 Z" />
</g>
<g id="#8e7267ff">
<path fill="#8e7267" opacity="1.00" d=" M 861.19 437.25 C 862.19 437.35 863.21 437.46 864.23 437.57 C 865.40 443.40 867.03 449.12 868.85 454.79 C 872.37 449.59 875.48 444.14 879.04 438.97 C 879.92 437.33 881.77 436.94 883.42 436.48 C 881.92 439.43 880.21 442.27 878.39 445.04 C 876.24 448.25 874.30 451.59 872.42 454.97 C 871.07 457.29 869.26 459.38 866.38 459.48 C 864.44 452.12 862.77 444.69 861.19 437.25 Z" />
</g>
<g id="#806961ff">
<path fill="#806961" opacity="1.00" d=" M 889.10 437.22 C 894.47 437.11 899.84 437.19 905.21 436.96 C 905.16 437.55 905.06 438.72 905.01 439.30 C 900.71 440.23 896.30 440.13 891.94 440.01 C 891.49 442.35 891.07 444.70 890.64 447.04 C 894.10 446.96 897.56 446.90 901.02 446.92 C 900.73 447.53 900.14 448.74 899.85 449.35 C 896.55 449.29 893.25 449.26 889.97 449.23 C 889.54 451.60 889.12 453.98 888.70 456.36 C 892.69 456.45 896.69 456.44 900.69 456.37 C 900.75 457.01 900.88 458.29 900.94 458.93 C 895.62 459.01 890.29 458.92 884.97 458.81 C 885.94 454.11 886.83 449.39 887.60 444.65 C 888.04 442.16 888.56 439.69 889.10 437.22 Z" />
</g>
<g id="#846760ff">
<path fill="#846760" opacity="1.00" d=" M 912.47 436.83 C 913.42 437.16 914.36 437.53 915.30 437.94 C 914.69 444.09 912.82 450.04 912.01 456.17 C 916.12 456.32 920.24 456.33 924.35 455.97 C 923.88 457.02 923.47 458.10 923.12 459.20 C 918.12 458.76 913.11 458.82 908.10 458.85 C 909.41 451.48 910.80 444.13 912.47 436.83 Z" />
</g>
<g id="#836b65ff">
<path fill="#836b65" opacity="1.00" d=" M 932.86 439.77 C 936.55 436.05 942.23 436.87 946.90 437.75 C 947.17 438.45 947.70 439.83 947.97 440.53 C 944.37 440.92 940.79 439.77 937.23 440.19 C 935.07 440.38 933.07 443.24 935.05 444.93 C 937.76 446.91 941.42 446.92 944.18 448.85 C 946.19 450.73 946.00 454.24 944.25 456.23 C 942.69 457.81 940.52 458.56 938.52 459.37 C 935.16 459.26 931.21 459.72 928.48 457.39 C 928.30 456.29 928.70 455.22 928.88 454.16 C 929.28 454.31 930.07 454.60 930.47 454.75 C 933.64 456.05 937.34 457.05 940.64 455.53 C 942.39 454.61 943.01 452.16 941.22 450.93 C 938.07 449.50 934.73 448.60 931.57 447.24 C 931.35 444.73 930.73 441.68 932.86 439.77 Z" />
</g>
<g id="#392d2aff">
</g>
<g id="#2c231eff">
</g>
<g id="#2f2625ff">
</g>
<g id="#302523ff">
</g>
<g id="#2f2724ff">
</g>
<g id="#7c655cff">
<path fill="#7c655c" opacity="1.00" d=" M 713.36 440.55 C 715.55 445.08 712.24 449.82 708.06 451.61 C 709.11 454.07 710.15 456.54 711.10 459.06 C 707.07 459.38 706.23 455.00 704.74 452.23 C 702.50 452.19 700.26 452.16 698.04 452.14 C 697.11 454.95 697.88 459.83 693.60 459.59 C 694.47 454.06 695.60 448.59 696.67 443.10 C 697.35 444.31 698.10 445.50 698.86 446.69 C 698.74 447.40 698.51 448.81 698.39 449.52 C 701.30 449.57 704.34 450.07 707.18 449.17 C 709.95 448.31 710.59 445.19 711.66 442.89 C 711.93 443.12 712.48 443.59 712.75 443.83 C 712.90 443.01 713.20 441.37 713.36 440.55 Z" />
</g>
<g id="#3c251dff">
</g>
<g id="#2a2526ff">
</g>
<g id="#2a2627ff">
</g>
<g id="#3d2e29ff">
</g>
<g id="#302321ff">
</g>
<g id="#917466ff">
<path fill="#917466" opacity="1.00" d=" M 109.72 446.71 C 118.11 447.51 126.57 446.98 134.99 447.16 C 278.00 447.10 421.01 447.16 564.02 447.19 C 573.80 447.08 583.61 447.48 593.38 446.68 C 593.13 448.00 592.92 449.33 592.74 450.67 C 592.21 450.67 591.16 450.66 590.63 450.66 C 542.43 450.39 494.23 450.67 446.02 450.54 C 334.18 450.61 222.35 450.50 110.51 450.60 C 110.26 449.30 109.99 448.00 109.72 446.71 Z" />
</g>
<g id="#3d2722ff">
</g>
<g id="#8e7366ff">
<path fill="#8e7366" opacity="1.00" d=" M 969.56 447.06 C 1079.70 447.26 1189.85 447.06 1300.00 447.16 C 1350.87 447.03 1401.74 447.38 1452.61 447.00 L 1453.53 446.97 C 1453.68 448.44 1453.38 449.63 1452.62 450.55 C 1300.08 450.75 1147.54 450.52 995.01 450.67 C 986.87 450.96 978.68 450.02 970.60 451.04 C 970.25 449.71 969.90 448.38 969.56 447.06 Z" />
</g>
<g id="#412d24ff">
</g>
<g id="#93979cff">
<path fill="#93979c" opacity="1.00" d=" M 1453.34 608.15 C 1453.66 608.14 1454.30 608.12 1454.63 608.11 C 1456.63 613.68 1459.01 619.35 1463.56 623.38 C 1467.49 627.32 1472.64 629.56 1477.84 631.33 C 1477.84 631.66 1477.85 632.32 1477.85 632.65 C 1471.82 634.76 1465.74 637.52 1461.65 642.64 C 1458.17 646.40 1456.31 651.18 1454.63 655.92 C 1454.31 655.89 1453.67 655.83 1453.35 655.81 C 1451.33 650.26 1448.97 644.61 1444.45 640.62 C 1440.47 636.66 1435.30 634.43 1430.10 632.64 C 1430.12 632.32 1430.17 631.67 1430.19 631.35 C 1435.95 629.28 1441.80 626.73 1445.85 621.93 C 1449.55 618.07 1451.62 613.12 1453.34 608.15 Z" />
</g>
</svg>
